<svg width="53" height="54" viewBox="0 0 53 54" fill="none" xmlns="http://www.w3.org/2000/svg">
<path d="M0.453479 21.7826C2.72787 6.90051 15.7735 1.36672 23.304 0.190488C24.3413 0.0284697 25.3985 0.0272422 26.4453 0.106632C45.3355 1.53921 48.5107 7.72629 52.4868 24.808C56.1487 40.5399 39.5134 55.6667 24.8659 53.8515C10.2185 52.0363 -2.59808 41.7501 0.453479 21.7826Z" fill="#00193C"/>
<path d="M50.2293 31.8337C48.1604 45.4445 36.3585 50.5623 29.4425 51.6912C28.4007 51.8612 27.3421 51.8619 26.2898 51.7798C9.11424 50.4411 6.21239 44.7332 2.58114 29.0483C-0.772121 14.5641 14.4612 0.637054 27.8742 2.3083C41.2872 3.97955 53.0237 13.45 50.2293 31.8337Z" fill="#FFDA16"/>
<path fill-rule="evenodd" clip-rule="evenodd" d="M28.2028 14.6096C28.2399 13.872 28.212 13.8387 28.1257 13.7747C28.0582 13.3297 27.8699 12.9117 27.5814 12.5663C27.5506 12.4562 27.4953 12.3545 27.4196 12.2688C27.344 12.1831 27.25 12.1157 27.1446 12.0714C27.0522 11.9016 26.9546 11.8669 26.852 11.8304C26.7737 11.8025 26.6924 11.7736 26.6083 11.683C26.4138 11.4287 26.2055 11.3032 25.992 11.374C25.7719 11.3893 25.5508 11.3771 25.3337 11.3377C25.1111 11.1772 24.8878 11.3078 24.6691 11.4442C24.4835 11.5693 24.2571 11.6189 24.0362 11.5829C23.9671 11.6379 23.8994 11.6794 23.8333 11.72C23.706 11.798 23.5845 11.8725 23.4705 12.0334C23.3633 12.3193 23.2621 12.32 23.1695 12.3207C23.113 12.3211 23.0597 12.3215 23.0102 12.3867C22.8652 12.4529 22.7507 12.7159 22.6597 12.9846C22.6039 12.8358 22.557 13.1385 22.5172 13.397C22.4015 13.388 22.2847 13.3824 22.1674 13.3808L22.395 13.1742C22.2526 12.7145 22.0968 12.6316 21.9297 12.5427C21.8726 12.5123 21.8142 12.4813 21.7545 12.4342C21.5318 12.2438 21.2761 12.0956 21.0002 11.9969C20.7096 11.7377 20.4026 11.7523 20.0866 11.7674C19.8224 11.78 19.5518 11.7929 19.2791 11.6465C19.0945 11.7335 18.9168 11.7995 18.747 11.8626C18.3228 12.0202 17.9475 12.1596 17.6356 12.5631C17.1417 13.0184 16.8237 13.633 16.7374 14.2992C16.6325 14.7186 16.5841 15.1502 16.5935 15.5824C16.5843 16.0174 16.6136 16.4524 16.681 16.8823C16.7034 17.049 16.729 17.1898 16.7565 17.3412C16.7964 17.5603 16.8402 17.8016 16.8841 18.1758L17.1321 17.9508C17.0918 18.0829 17.0549 18.2159 17.0213 18.3498C15.874 18.8766 14.9379 19.7759 14.3655 20.9021C14.0421 21.4622 13.82 22.0751 13.7096 22.7124C13.5361 23.3373 13.4905 23.9908 13.5755 24.6337C13.619 25.2696 13.7428 25.8973 13.9438 26.5021C14.0336 27.1446 14.2999 27.7496 14.7131 28.2497C14.9386 28.8625 15.3134 29.4093 15.8035 29.8408C16.1069 30.7885 16.4325 30.9208 16.7745 31.0598C16.8924 31.1077 17.0123 31.1564 17.1339 31.2396C17.1854 31.2935 17.2373 31.3483 17.2895 31.4036C17.7181 31.8572 18.1684 32.3336 18.63 32.4388C19.0147 32.9483 19.5611 33.3109 20.1785 33.468C20.2641 33.6055 20.3514 33.7419 20.4404 33.8773C20.5545 34.3194 20.481 34.6303 20.3064 35.3695L20.3036 35.3813C20.1286 35.9669 19.8434 36.5138 19.4635 36.9925C19.1106 37.4939 18.8218 38.0375 18.6038 38.6106C18.3539 39.1315 18.2929 39.723 18.4311 40.284C18.4397 40.312 18.4492 40.3439 18.4596 40.3787C18.565 40.7332 18.7602 41.3894 19.0112 41.337C19.1748 41.5702 19.3621 41.6726 19.5638 41.7828C19.702 41.8582 19.847 41.9374 19.9957 42.0649C20.36 42.2467 20.7471 42.3787 21.1466 42.4573C21.5422 42.5662 21.9486 42.631 22.3584 42.6507C22.5277 42.6471 22.6972 42.6741 22.8669 42.7011C23.0266 42.7265 23.1865 42.752 23.3464 42.752C23.5038 42.6176 23.6612 42.7144 23.8186 42.8112C23.9915 42.9175 24.1644 43.0239 24.3373 42.8239C24.5015 42.6999 24.6658 42.7407 24.83 42.7815C24.9966 42.8229 25.1633 42.8642 25.3299 42.7335C25.5554 42.7535 25.7811 42.7906 26.0068 42.8277L26.0068 42.8277L26.0071 42.8278C26.1125 42.8451 26.2178 42.8624 26.3231 42.878C26.972 42.7089 27.6505 42.6871 28.3089 42.8141C28.7028 42.5073 29.0963 42.5664 29.4889 42.6255C29.7554 42.6655 30.0216 42.7056 30.2872 42.6311C30.8106 42.3138 31.4312 42.1969 32.0342 42.302C32.4979 42.6186 32.9423 42.1836 33.3446 41.7897L33.3447 41.7896C33.4336 41.7026 33.5205 41.6175 33.6051 41.543C33.8024 41.4138 33.9818 41.171 34.144 40.9515L34.144 40.9515C34.2859 40.7594 34.4146 40.5852 34.5304 40.521C34.7343 40.6455 34.8986 40.0178 35.0254 39.5332C35.0528 39.4285 35.0785 39.3305 35.1024 39.2482C35.2467 38.7996 35.3288 38.3334 35.3464 37.8626C35.3801 37.3983 35.3703 36.9319 35.317 36.4695C35.3082 36.382 35.2981 36.2635 35.2869 36.1322V36.1322C35.2429 35.614 35.1818 34.8954 35.1116 35.085C35.0637 34.5441 35.0112 34.4169 34.9567 34.2851C34.9117 34.1762 34.8654 34.0641 34.8193 33.7126L34.7552 33.7127C34.7713 33.68 34.7874 33.6438 34.8034 33.6038C34.8733 33.55 34.9421 33.528 35.0099 33.5063C35.1676 33.4558 35.3196 33.4072 35.4657 32.9645C35.6132 32.6789 35.8126 32.4232 36.0538 32.2107C36.1643 31.7657 36.2699 31.6825 36.3705 31.6032C36.4365 31.5512 36.5003 31.5009 36.5619 31.351C36.6315 31.1943 36.6982 31.0983 36.7619 31.0066C36.8405 30.8936 36.9144 30.7872 36.9837 30.5817C37.2734 30.0326 37.4803 29.4437 37.5977 28.8341C37.7551 28.2354 37.8823 27.629 37.9786 27.0175C38.0041 26.7865 38.0277 26.5635 38.0497 26.3563L38.0497 26.3561L38.0497 26.3559L38.0497 26.3558C38.1104 25.783 38.1583 25.3307 38.1984 25.1617C38.2126 24.962 38.2259 24.7783 38.2383 24.6056L38.2384 24.6049L38.2385 24.6037C38.2733 24.1209 38.3019 23.7233 38.329 23.2974L38.0624 23.7358C38.0584 23.6966 38.0538 23.6575 38.0487 23.6184C38.0242 23.4312 37.9873 23.2463 37.9383 23.0649L38.3218 22.9738C38.2786 22.7062 38.2567 22.3178 38.2498 22.1884C38.2364 21.8862 38.243 21.5834 38.2694 21.2821C38.2878 20.9443 38.316 20.6664 38.3482 20.4414C38.3636 20.3988 38.3799 20.2218 38.3968 20.0396L38.3968 20.0395C38.4159 19.8324 38.4357 19.6186 38.4552 19.588C38.4783 19.2497 38.5011 19.1141 38.5223 18.9878C38.5345 18.9154 38.5462 18.846 38.5571 18.7433C38.6048 18.462 38.627 18.1769 38.6233 17.8916L38.6273 17.7667V17.7667C38.6318 17.63 38.6342 17.5549 38.6345 17.4798C38.6348 17.3883 38.6318 17.2968 38.6252 17.0938V17.0937L38.6233 17.036L38.622 17.0113C38.606 16.7042 38.5741 16.0913 38.522 16.2033C38.4649 15.9167 38.3852 15.635 38.2838 15.3609C38.1375 15.1234 38.0074 14.8764 37.8942 14.6215C37.823 14.6543 37.7464 14.4969 37.6645 14.3285C37.5684 14.1309 37.4651 13.9183 37.3545 13.9805C37.2419 14.0974 37.1226 13.942 36.9962 13.7774C36.8904 13.6398 36.7798 13.4957 36.6639 13.4988C36.4096 13.6352 36.1305 13.6381 35.8457 13.2514C35.7072 13.2025 35.56 13.1835 35.4136 13.1958C35.2673 13.2081 35.1253 13.2514 34.9969 13.3228C34.9042 13.3622 34.813 13.3553 34.7243 13.3486C34.5499 13.3354 34.3849 13.3229 34.2351 13.6634C34.1454 13.7675 34.0612 13.842 33.9837 13.9106C33.8658 14.0149 33.7633 14.1055 33.6804 14.2659C33.6079 14.4515 33.5524 14.6923 33.5097 14.8773L33.5097 14.8773C33.4638 15.076 33.4328 15.2105 33.4116 15.1434C33.3576 15.4496 33.3416 15.7614 33.3639 16.0715C33.3627 16.0896 33.3614 16.3546 33.3601 16.6426V16.6428L33.3601 16.6435L33.3601 16.6464L33.3601 16.6476C33.3591 16.8518 33.3581 17.0669 33.357 17.2132C33.3547 17.2357 33.3495 18.1466 33.3495 18.3474V18.3758L33.2971 14.7916C33.3725 14.4041 33.3527 14.004 33.2396 13.6258C33.1906 13.6226 33.1252 13.4739 33.0444 13.2902C32.9355 13.0425 32.7985 12.7309 32.6359 12.6269C32.3694 12.329 32.0116 12.128 31.6186 12.0555C31.4382 11.9643 31.2395 11.9151 31.0374 11.9116C30.8353 11.9081 30.635 11.9504 30.4516 12.0353C30.3142 12.1345 30.1817 12.2494 30.0544 12.3598C29.7333 12.6383 29.4453 12.888 29.196 12.7834C29.0757 12.959 28.9639 13.0203 28.8617 13.0763C28.6706 13.1811 28.5128 13.2676 28.395 14.0493C28.3196 14.2323 28.2555 14.4194 28.2028 14.6096Z" fill="#AFE7FF"/>
<path fill-rule="evenodd" clip-rule="evenodd" d="M28.6342 14.7981L28.6342 14.7982C28.6229 14.9051 28.6121 15.0077 28.6065 15.1023L28.6076 15.1034C28.6001 15.2316 28.548 15.3302 28.4728 15.3991C28.3941 15.8953 28.3564 16.3979 28.3605 16.9015C28.3127 17.5539 28.2826 18.2078 28.2525 18.8616C28.2326 19.2925 28.2128 19.7234 28.1879 20.1538C28.1729 20.453 28.1655 20.7482 28.1729 21.048C28.1798 21.315 28.1879 21.5826 28.2092 21.8484C28.2273 21.9217 28.2405 21.996 28.2488 22.0708C28.3264 22.1515 28.3766 22.2574 28.3848 22.3636C28.424 22.4099 28.4536 22.4642 28.471 22.5234C28.6043 22.9202 28.8822 23.0855 29.1746 23.2593C29.3643 23.3722 29.5602 23.4886 29.7266 23.6743C29.7891 23.7429 29.8377 23.8128 29.8822 23.8769L29.8822 23.8769C30.0123 24.0641 30.108 24.2019 30.4171 24.1162C30.5467 24.0803 30.6679 24.0146 30.7891 23.9489C30.8917 23.8933 30.9942 23.8377 31.1019 23.8003C31.4138 23.7282 31.7057 23.5875 31.9564 23.3883C32.1788 23.19 32.3854 22.9747 32.5744 22.7444C32.8838 22.2938 33.0197 21.7464 32.957 21.2034C32.9421 21.0598 32.9892 20.9539 33.0682 20.8853C33.0392 20.7389 33.0181 20.5909 33.0049 20.4417C32.8727 18.9894 32.8493 17.5292 32.935 16.0733C32.8885 15.7439 32.9082 15.409 32.9922 15.0883C32.9662 15.0624 32.9433 15.033 32.9244 15.0008C32.8675 14.904 32.8505 14.7889 32.877 14.6798C32.928 14.4034 32.9183 14.1198 32.8493 13.8482C32.7631 13.7386 32.7066 13.6063 32.6504 13.4745L32.6503 13.4744C32.6234 13.4112 32.5964 13.3482 32.5663 13.2878C32.4648 13.0897 32.3223 12.9154 32.1483 12.7765C31.9743 12.6376 31.7727 12.5373 31.557 12.4822C31.3844 12.3988 31.1926 12.3629 31.0015 12.3782C30.8103 12.3934 30.6267 12.4593 30.4695 12.5691C30.4208 12.6103 30.3731 12.6523 30.3255 12.6943C30.2161 12.7907 30.107 12.8869 29.9867 12.9719C29.863 13.0775 29.7166 13.1532 29.559 13.1931C29.4832 13.2123 29.4057 13.2229 29.3281 13.2251C29.3037 13.2433 29.2792 13.261 29.2548 13.2787L29.2548 13.2787L29.2547 13.2788C29.1623 13.3456 29.0716 13.4112 28.9981 13.495C28.8811 13.6288 28.8274 13.8613 28.7779 14.0756C28.7515 14.1901 28.7262 14.2995 28.6931 14.3857C28.6827 14.4232 28.6726 14.4606 28.6627 14.4982C28.6552 14.5999 28.6445 14.7008 28.6342 14.7981ZM33.1843 23.3549C33.4004 23.0849 33.5655 22.782 33.6754 22.4608C33.7878 22.6812 33.9071 22.8981 34.0332 23.1111C34.1344 23.271 34.2799 23.3979 34.4521 23.4765C34.4734 23.4857 34.4998 23.488 34.5271 23.4891C34.5474 23.5211 34.5794 23.561 34.6008 23.5877C34.6112 23.6005 34.619 23.6103 34.6218 23.6146C34.7044 23.7508 34.8361 23.85 34.9898 23.8919C35.0747 23.915 35.1627 23.9197 35.2481 23.9065C35.4657 23.9624 35.6869 24.0037 35.9102 24.0301C36.1859 24.1635 36.5005 24.1933 36.7964 24.1141C36.8971 24.0562 36.9947 23.993 37.0887 23.9248C37.1401 23.9178 37.1896 23.9303 37.2409 23.9432C37.3079 23.9602 37.378 23.9779 37.4598 23.9541C37.5747 23.917 37.6792 23.8533 37.7648 23.7682L37.7749 23.759L37.7936 23.7423L37.7937 23.7423L37.7938 23.7422C37.8176 23.721 37.8468 23.695 37.8741 23.6683L37.8602 23.8964C37.7117 26.342 37.5459 29.0731 36.1888 31.1329C36.1409 31.2057 36.0846 31.2653 36.0278 31.3254C35.9823 31.3736 35.9364 31.4221 35.8942 31.4781C35.8232 31.574 35.7735 31.6795 35.724 31.7848C35.676 31.8868 35.6281 31.9886 35.561 32.0812C35.3683 32.3215 35.1971 32.5783 35.0495 32.8488C34.9585 33.0327 34.8878 33.0662 34.7837 33.1154C34.7292 33.1412 34.6656 33.1714 34.5851 33.2297C34.5169 33.2795 34.4818 33.3464 34.4474 33.4123C34.4185 33.4675 34.3901 33.5218 34.3429 33.5646C34.2528 33.6213 34.1549 33.6644 34.0523 33.6923C33.9335 33.7499 33.8414 33.8409 33.751 33.9303L33.751 33.9303C33.6606 34.0197 33.5718 34.1075 33.4596 34.1584C33.3292 34.2176 33.1874 34.2146 33.0463 34.2117C32.9445 34.2095 32.8431 34.2074 32.7466 34.2286C32.5103 34.2937 32.3019 34.4312 32.1495 34.6198C32.1025 34.6412 32.0508 34.6657 32.0006 34.6895L32.0006 34.6895L32.0003 34.6897C31.9172 34.7291 31.838 34.7666 31.7908 34.7853C31.7458 34.6892 31.6579 34.5562 31.6251 34.5192C31.2551 34.1032 30.6469 34.7155 31.0146 35.1292C30.8604 34.9566 31.037 35.2886 31.0687 35.3438C31.12 35.4421 31.1937 35.5268 31.2839 35.5913C31.3669 35.6383 31.4625 35.6567 31.5561 35.6445C31.6126 35.658 31.6706 35.6656 31.7292 35.667C31.8758 35.6705 32.0207 35.6353 32.1493 35.5648C32.2023 35.5407 32.2603 35.5166 32.3183 35.4925C32.3987 35.459 32.4791 35.4256 32.5464 35.3922C32.6221 35.3532 32.6851 35.3015 32.7476 35.25C32.8359 35.1775 32.9232 35.1056 33.0441 35.0716C33.3149 35.0521 33.5834 35.0082 33.8463 34.9404C33.9866 34.8762 34.0957 34.7772 34.2033 34.6797C34.2885 34.6024 34.3727 34.5261 34.4706 34.4686C34.4945 34.4567 34.5181 34.4444 34.5414 34.4316C34.5988 34.644 34.6548 34.8568 34.6792 35.0848C34.6813 35.1631 34.7044 35.2391 34.7457 35.3049L34.7448 35.305C34.7443 35.305 34.7439 35.3052 34.7435 35.3055C34.7392 35.3087 34.7441 35.3243 34.7531 35.3526C34.768 35.3994 34.7939 35.4813 34.8075 35.5998C34.8217 35.7213 34.832 35.8435 34.8422 35.9656L34.8422 35.9657C34.8494 36.0512 34.8565 36.1366 34.8651 36.2218L34.8712 36.2882L34.881 36.3919C34.9061 36.6549 34.9298 36.904 34.9312 37.184C34.9495 37.6719 34.9109 38.1602 34.8162 38.6392C34.7827 38.7858 34.7426 38.931 34.7026 39.076C34.6848 39.1405 34.667 39.2049 34.6499 39.2693C34.639 39.3098 34.6136 39.3777 34.5841 39.4567C34.5122 39.6491 34.4157 39.9073 34.4438 39.9966C34.4536 40.0275 34.4637 40.0524 34.4737 40.0722C34.4572 40.0794 34.4385 40.0893 34.4174 40.1025C34.2753 40.1826 34.1448 40.2817 34.0295 40.3971C33.8873 40.5477 33.7532 40.7004 33.6195 40.8528C33.4021 41.1005 33.1856 41.3472 32.9362 41.5819C32.8517 41.6946 32.7396 41.7836 32.6107 41.8403C32.4818 41.8971 32.3404 41.9197 32.2003 41.9059C32.1004 41.9022 31.9996 41.8902 31.8979 41.8781C31.7652 41.8623 31.6309 41.8464 31.4954 41.8484C31.186 41.8543 30.8915 41.9423 30.6 42.0294C30.2442 42.1357 29.8928 42.2407 29.524 42.1936C29.0737 42.1656 28.6218 42.2111 28.1861 42.3283C27.8546 42.3419 27.5226 42.3328 27.1923 42.3012C27.0275 42.304 26.8643 42.3315 26.7016 42.3589C26.5308 42.3876 26.3606 42.4163 26.1894 42.4163C26.0535 42.4163 25.9171 42.386 25.7803 42.3557C25.6304 42.3225 25.4801 42.2891 25.3297 42.2955C25.2563 42.2986 25.1877 42.3085 25.1193 42.3184C25.0371 42.3302 24.9551 42.3421 24.8653 42.3421C24.69 42.3135 24.5111 42.3154 24.3365 42.3478C24.2944 42.3609 24.2521 42.3872 24.2106 42.413C24.1683 42.4394 24.1269 42.4651 24.0875 42.4758C24.0938 42.4647 24.0803 42.445 24.0045 42.4128C23.6705 42.3041 23.3194 42.2581 22.9687 42.277C22.3572 42.2298 21.7492 42.1437 21.1486 42.0193C20.5313 41.873 19.9543 41.5909 19.4598 41.1935C19.4207 41.1614 19.3902 41.1238 19.3597 41.0864L19.3597 41.0864C19.3216 41.0394 19.2837 40.9928 19.2296 40.9576C19.2053 40.9413 19.1467 40.9307 19.0961 40.9215L19.0783 40.9183C19.0909 40.8547 19.0018 40.6177 18.9462 40.4699L18.9462 40.4698L18.9462 40.4698C18.9263 40.4169 18.9107 40.3754 18.9056 40.3574C18.5592 39.124 19.2844 38.0529 19.951 37.0682L20.0202 36.9659C20.5134 36.2362 20.921 35.2795 20.9191 34.3592C21.303 34.5513 21.6838 34.7516 22.0645 34.9519L22.0647 34.952C22.5172 35.19 22.9697 35.4281 23.4274 35.6523C23.9246 35.8951 24.3625 35.1511 23.863 34.9042C23.2876 34.6222 22.7122 34.338 22.1414 34.0411C21.5999 33.6951 21.0371 33.3836 20.4565 33.1083C19.9857 32.973 19.5537 32.7281 19.1957 32.3936C19.0147 32.2195 18.8168 32.0966 18.6181 31.9732C18.4379 31.8614 18.2571 31.7491 18.0875 31.5978C17.8168 31.2806 17.5075 30.9986 17.1668 30.7583C16.9495 30.6807 16.7467 30.5675 16.5666 30.4234C16.4223 30.2763 16.3427 30.0901 16.2627 29.9029C16.1894 29.7312 16.1156 29.5586 15.9912 29.4146C15.6545 29.0236 15.3662 28.5933 15.1327 28.1332C15.0655 28.0074 14.9858 27.8896 14.9061 27.7717C14.8034 27.6198 14.7007 27.4679 14.6246 27.2988C14.4619 26.8597 14.3347 26.4083 14.2442 25.9488C13.9642 25.031 13.8961 24.0617 14.0451 23.1137C14.4479 21.2148 15.4658 19.5265 17.2853 18.7014C17.3772 18.6595 17.4379 18.6007 17.4726 18.5338C19.2253 18.0102 21.3328 17.5929 22.7432 18.9104C22.9993 19.7301 22.3647 20.6131 21.856 21.2443C21.4647 21.73 21.0636 22.2116 20.6384 22.6679C20.4922 22.8247 20.3402 22.9748 20.1883 23.1248L20.1883 23.1248C19.9304 23.3795 19.6729 23.6337 19.4455 23.9195C19.3679 24.0021 19.3247 24.1111 19.3247 24.2244C19.3247 24.3378 19.3679 24.4468 19.4455 24.5294C19.5267 24.6099 19.6364 24.655 19.7508 24.655C19.8651 24.655 19.9748 24.6099 20.056 24.5294L20.0589 24.5288C20.2952 24.2304 20.5654 23.963 20.8359 23.6954L20.8359 23.6954L20.8359 23.6954L20.836 23.6954C21.0265 23.5069 21.2171 23.3182 21.3962 23.1185C21.6392 22.847 21.8789 22.5718 22.1131 22.292C24.0834 24.2746 25.5526 26.6992 26.3979 29.3648C26.5648 29.8925 27.3986 29.6669 27.2305 29.1346C26.3329 26.2977 24.7641 23.7194 22.6576 21.6183C22.7012 21.5623 22.7445 21.5061 22.7876 21.4497C22.9845 21.1916 23.1704 20.9021 23.3202 20.5956C23.3157 20.6957 23.3067 20.7958 23.2932 20.8956C23.2805 20.9348 23.2734 20.9759 23.2723 21.0177C23.2005 21.5972 23.335 22.1834 23.652 22.6738C23.6736 22.6936 23.6977 22.7103 23.7235 22.7235C23.7317 22.733 23.7432 22.7452 23.7579 22.7601C23.8038 22.8143 23.8447 22.8738 23.8858 22.9334L23.8858 22.9334C23.9318 23.0002 23.978 23.0673 24.0312 23.1272C24.1135 23.2386 24.2207 23.3292 24.3441 23.3918C24.4164 23.4284 24.493 23.4549 24.5719 23.4707C24.7593 23.5995 24.983 23.6685 25.2132 23.6658C25.3941 23.6262 25.5816 23.6272 25.7621 23.6687C25.8173 23.6858 25.8673 23.7141 25.9173 23.7425C25.9717 23.7733 26.0261 23.8041 26.0872 23.8206C26.6141 23.9646 26.9845 23.6559 27.2477 23.2479C27.4124 23.1765 27.573 23.0962 27.7288 23.0074C27.8466 23.2824 28.0286 23.5267 28.261 23.7191C28.4082 23.8224 28.562 23.916 28.7213 23.9994C28.9425 24.1553 29.1368 24.3461 29.2967 24.5644C29.8906 25.2216 30.4977 25.0104 31.2077 24.6933C31.5804 24.5839 31.939 24.4313 32.2763 24.2388C32.6081 23.9756 32.9123 23.6795 33.1843 23.3549ZM14.4666 19.941C14.9624 19.2787 15.5755 18.7157 16.2735 18.2787C16.2828 18.1713 16.3285 18.0674 16.4177 17.9927C16.2904 17.2302 16.2048 16.4613 16.1615 15.6894C16.1087 14.7657 16.3027 13.8445 16.7236 13.0206C16.9295 12.7048 17.166 12.4101 17.4297 12.1408C17.7495 11.8323 18.1375 11.6034 18.5621 11.4727C18.7722 11.3667 18.9929 11.283 19.2204 11.223C19.336 11.2075 19.4507 11.2435 19.5671 11.2801C19.6669 11.3115 19.768 11.3432 19.8718 11.3432C20.1146 11.3284 20.3581 11.3321 20.6003 11.3542C20.8204 11.4028 21.0291 11.4934 21.2148 11.6212C21.4289 11.7204 21.6368 11.8324 21.8375 11.9566L21.8533 11.968C21.965 12.0482 22.0674 12.1216 22.1856 12.1914C22.2774 12.2502 22.3615 12.3187 22.4368 12.3953C22.543 12.227 22.6823 12.0799 22.8482 11.9639C22.8995 11.9363 22.9548 11.9169 23.0122 11.9064C23.1296 11.9282 23.1578 11.8983 23.0968 11.8166C23.2109 11.6832 23.335 11.5585 23.4679 11.4437C23.8304 11.2421 24.2158 11.0846 24.6159 10.9748C24.9367 10.8333 25.1846 10.8659 25.4673 10.9031C25.5973 10.9202 25.7347 10.9383 25.8899 10.9408C26.0533 10.9269 26.2178 10.9465 26.3734 10.9982C26.529 11.0499 26.6725 11.1328 26.795 11.2418C26.8943 11.3233 26.9986 11.3975 27.103 11.4717C27.2456 11.5732 27.3884 11.6748 27.5189 11.7953C27.8678 12.1276 28.1426 12.5263 28.3287 12.9653C28.3958 12.8992 28.472 12.848 28.5478 12.7972C28.6481 12.7299 28.7476 12.6632 28.8237 12.5634C28.8743 12.4837 28.9484 12.4218 29.0357 12.3864C29.1231 12.3509 29.2194 12.3435 29.3111 12.3654C29.4385 12.3948 29.7113 12.1338 29.924 11.9304C30.0236 11.8351 30.1101 11.7524 30.1622 11.7181C30.4182 11.542 30.7264 11.4582 31.0363 11.4804C31.6934 11.5242 32.3183 11.7812 32.816 12.2123C33.0107 12.3699 33.1709 12.5658 33.2867 12.7878C33.349 12.9054 33.4042 13.0266 33.4519 13.1509L33.4541 13.1562L33.4541 13.1563C33.4652 13.1827 33.5132 13.2978 33.5228 13.3384C33.531 13.3469 33.5392 13.3552 33.5474 13.3635C33.5869 13.4033 33.6268 13.4434 33.6567 13.5117C33.6627 13.5304 33.6684 13.5493 33.6739 13.5682C33.7796 13.4449 33.8915 13.3268 34.009 13.2144C34.2039 12.9885 34.3812 12.9673 34.6167 12.9392C34.6662 12.9333 34.7184 12.9271 34.7737 12.9186C35.1284 12.7977 35.5068 12.7636 35.8774 12.819C35.9803 12.8474 36.0616 12.911 36.1409 12.9731C36.2353 13.047 36.3268 13.1186 36.4482 13.1252C36.5044 13.1282 36.5556 13.116 36.6071 13.1037C36.6821 13.0858 36.7579 13.0677 36.851 13.0964C36.9747 13.1417 37.0858 13.2158 37.175 13.3127C37.239 13.3697 37.2932 13.4368 37.3355 13.5113C37.343 13.528 37.3513 13.5416 37.3597 13.5527C37.3976 13.5456 37.4339 13.542 37.4604 13.5452C37.5797 13.5629 37.6904 13.6177 37.7769 13.7017C37.867 13.7964 37.9412 13.905 37.9967 14.0234C38.0325 14.0747 38.0603 14.1312 38.079 14.1908C38.0798 14.2073 38.0802 14.2205 38.0802 14.2309C38.0908 14.2359 38.1013 14.2413 38.1115 14.2472C38.1771 14.2848 38.2314 14.3393 38.2689 14.4049C38.56 14.8974 38.7775 15.4295 38.9148 15.9844C39.0793 16.4931 39.1312 17.0315 39.067 17.5623C39.0449 18.1576 38.9927 18.7514 38.9105 19.3415C38.7082 20.5028 38.6514 21.6848 38.7413 22.8602C38.7525 22.9425 38.7431 23.0177 38.7186 23.0841C38.7509 23.1439 38.7677 23.2174 38.7621 23.3048C38.7511 23.4766 38.7403 23.6501 38.7294 23.8251C38.5578 26.5863 38.3641 29.704 36.6503 31.9361C36.5791 32.0622 36.5192 32.1943 36.4714 32.3309C36.3888 32.4665 36.2886 32.5905 36.1733 32.6997C36.0472 32.8401 35.9644 33.0089 35.8822 33.1766C35.7925 33.3595 35.7034 33.5412 35.5593 33.6837C35.4902 33.751 35.4115 33.8076 35.3257 33.8517C35.3132 33.8571 35.3009 33.8629 35.2888 33.8689C35.3168 33.9987 35.3488 34.1266 35.3808 34.2544L35.3809 34.2545C35.4308 34.4535 35.4806 34.6525 35.5151 34.8584C35.6381 35.0619 35.6561 35.3299 35.6727 35.5769C35.6768 35.6376 35.6807 35.6971 35.6862 35.754C35.6965 35.8617 35.7079 35.9695 35.7194 36.0773L35.7194 36.0775V36.0775V36.0776V36.0776C35.752 36.3849 35.7847 36.6928 35.7915 37.0015C35.8456 38.175 35.6417 39.3461 35.1942 40.4322C35.1345 40.6064 35.0246 40.759 34.8783 40.8707C34.8409 40.8941 34.7972 40.9065 34.7547 40.9186C34.7189 40.9287 34.684 40.9386 34.6545 40.9547C34.5973 40.9679 34.5376 40.9653 34.4818 40.9472L34.6383 41.0048C34.2913 41.461 33.9005 41.8821 33.4714 42.2621C33.3202 42.4367 33.1335 42.5771 32.9237 42.6737C32.7139 42.7704 32.4859 42.8211 32.2549 42.8225C31.9693 42.7601 31.6788 42.7228 31.3866 42.7109C31.0445 42.7754 30.713 42.887 30.4015 43.0424C30.055 43.1137 29.6974 43.1114 29.3519 43.0355C29.1238 43.0128 28.9378 43.0744 28.7508 43.1363C28.6101 43.183 28.4688 43.2298 28.3087 43.2409C28.1164 43.2542 27.9188 43.229 27.7209 43.2037C27.5439 43.181 27.3665 43.1583 27.1923 43.1632C27.0315 43.1684 26.8769 43.1976 26.7235 43.2267C26.5527 43.259 26.3833 43.291 26.2084 43.2892C25.638 43.2157 25.0617 43.2015 24.4884 43.2466C24.4258 43.2597 24.3725 43.2794 24.3213 43.2982C24.224 43.334 24.1341 43.3671 24.0022 43.3479C23.9087 43.3341 23.8252 43.2812 23.7466 43.2313C23.6844 43.1919 23.6253 43.1543 23.5666 43.1396C23.4763 43.1174 23.3017 43.1188 23.1257 43.1202H23.1256C22.9821 43.1213 22.8377 43.1225 22.7374 43.1108C22.604 43.0953 22.4708 43.0886 22.3375 43.082C22.145 43.0723 21.9524 43.0626 21.7592 43.0263C21.1108 42.9309 20.4789 42.7457 19.8815 42.4761C19.6066 42.3363 19.3422 42.1767 19.0903 41.9985C19.0526 41.9722 18.9187 41.832 18.8838 41.7871C18.8436 41.772 18.7208 41.7077 18.7048 41.6941C18.4212 41.4398 18.2183 41.1079 18.1213 40.7395C17.9709 40.2392 17.9279 39.7128 17.9949 39.1947C18.0619 38.6766 18.2375 38.1785 18.5103 37.7329C18.6666 37.4309 18.866 37.1252 19.0695 36.8131C19.6501 35.9228 20.2645 34.9809 20.0076 33.9262C19.8906 33.8741 19.7731 33.8233 19.6549 33.7741C19.3409 33.6431 19.1055 33.4319 18.8688 33.2197C18.7031 33.071 18.5367 32.9218 18.3424 32.7993C17.9095 32.5428 17.5092 32.235 17.1501 31.8826C16.9582 31.6903 16.7393 31.5552 16.5234 31.4221C16.2039 31.225 15.8908 31.0319 15.681 30.6627C15.5907 30.4468 15.4895 30.2355 15.3778 30.0298C15.3079 29.9319 15.2213 29.8426 15.1346 29.7531C15.0586 29.6748 14.9825 29.5963 14.9175 29.5119C14.6485 29.1013 14.4008 28.6772 14.1752 28.2413C13.2246 26.5911 12.8911 24.6567 13.2343 22.7834C13.4172 21.7526 13.8392 20.7791 14.4666 19.941ZM22.0629 13.4449C22.059 13.4656 22.0563 13.4834 22.0561 13.4949C22.0401 13.5233 22.0272 13.5535 22.0178 13.5849C21.8942 14.0735 21.8419 14.5774 21.8625 15.081C21.8587 15.1423 21.8545 15.2053 21.8502 15.2696C21.8026 15.9841 21.744 16.8628 22.0967 17.4794L22.1048 17.4936C20.6176 16.9118 18.8176 17.248 17.2502 17.7028C17.2321 17.5831 17.2132 17.4633 17.1943 17.3433C17.0476 16.4142 16.8994 15.475 17.119 14.5449C17.1705 14.2281 17.2574 13.9182 17.3779 13.6208C17.4938 13.4011 17.6386 13.1979 17.8083 13.0166C17.9979 12.7681 18.2389 12.5635 18.515 12.417C18.6813 12.3383 18.8539 12.2733 19.0265 12.2082C19.1143 12.1752 19.2021 12.1421 19.289 12.1072C19.5393 12.1871 19.8033 12.2189 20.0669 12.2C20.206 12.1841 20.3466 12.186 20.4852 12.2058C20.6409 12.2669 20.7904 12.3426 20.9317 12.4319C21.186 12.5694 21.431 12.7231 21.6654 12.8923C21.7454 12.9289 21.8155 12.9842 21.8697 13.0535C21.924 13.1228 21.9609 13.204 21.9773 13.2905C21.9976 13.3521 22.027 13.4033 22.0629 13.4449ZM37.8836 23.5141C37.8754 23.5155 37.8671 23.5168 37.8586 23.5179L37.8696 23.5166L37.8835 23.5154L37.8836 23.5141ZM38.0145 19.62C37.8516 20.6228 37.8039 21.6405 37.872 22.6532L37.8586 22.6548L37.8603 22.6525C37.702 22.6627 37.5516 22.7257 37.4334 22.8314C37.3857 22.8806 37.3411 22.9327 37.2999 22.9874C37.2941 22.9939 37.2817 23.006 37.2667 23.0206L37.2667 23.0206L37.2667 23.0206C37.2503 23.0367 37.2307 23.0557 37.2134 23.0738L37.2023 23.0727C37.0879 23.0628 36.9727 23.0788 36.8654 23.1197C36.8223 23.1352 36.781 23.1603 36.7398 23.1853C36.6904 23.2154 36.6413 23.2453 36.5898 23.2578C36.4759 23.2871 36.4006 23.262 36.3084 23.2315C36.2771 23.2211 36.2439 23.2101 36.2066 23.2003C35.9057 23.088 35.5852 23.0437 35.2677 23.0688C35.2286 23.0496 35.1749 22.9859 35.1139 22.9136C35.0247 22.808 34.9201 22.684 34.8232 22.6536L34.7863 22.6418C34.7727 22.6374 34.7622 22.6341 34.7543 22.6317C34.7062 22.5644 34.6654 22.4921 34.6328 22.416C34.5819 22.3182 34.5393 22.2165 34.4967 22.1149L34.4967 22.1148C34.4573 22.0208 34.418 21.9269 34.3721 21.836C34.1767 21.4994 34.0269 21.1383 33.9267 20.7622C33.8334 20.276 33.7869 19.7819 33.788 19.2868C33.7664 18.2289 33.7724 17.1613 33.7981 16.1032C33.7987 16.0943 33.799 16.0854 33.799 16.0765V16.0696C33.799 15.8991 33.799 15.7232 33.8041 15.55C33.8041 15.5353 33.8086 15.505 33.8135 15.4711L33.8135 15.471L33.8135 15.471V15.471L33.8135 15.471L33.8135 15.4709L33.8135 15.4709C33.8207 15.4215 33.829 15.3645 33.8263 15.3376C33.9031 15.2099 33.9313 15.0498 33.9591 14.8919L33.9591 14.8919C33.9792 14.7774 33.9991 14.6642 34.0372 14.5655C34.1308 14.3769 34.2662 14.2122 34.4331 14.0838C34.4603 14.0564 34.4861 14.0236 34.512 13.9909L34.512 13.9909C34.5441 13.9502 34.5762 13.9096 34.6109 13.879C34.6434 13.8516 34.6558 13.8362 34.6639 13.8262C34.6673 13.8219 34.67 13.8187 34.673 13.8158C34.6835 13.8061 34.6989 13.8018 34.7674 13.7825L34.7743 13.7806C34.8356 13.7625 34.9075 13.7537 34.9801 13.7448C35.0438 13.7371 35.1081 13.7292 35.1662 13.715C35.2039 13.7057 35.2383 13.6957 35.2705 13.6864C35.4075 13.6468 35.5057 13.6184 35.6651 13.6971C35.7062 13.7182 35.7419 13.7517 35.7775 13.7852C35.8083 13.8141 35.839 13.843 35.8734 13.864C36.0271 13.9525 36.2012 13.9995 36.3785 14.0004C36.4657 14.0008 36.5522 13.9901 36.6361 13.9688C36.6798 14.0126 36.7266 14.0762 36.7736 14.1399C36.8397 14.2296 36.9061 14.3197 36.9644 14.3554C37.0451 14.4066 37.137 14.4376 37.2322 14.4456C37.2512 14.4732 37.2726 14.5056 37.2924 14.5424C37.3274 14.6193 37.3672 14.6938 37.4115 14.7657C37.4551 14.8442 37.5169 14.9109 37.5915 14.9603C37.8259 15.3866 37.9996 15.8439 38.1072 16.3188C38.1178 16.3848 38.1415 16.4389 38.1744 16.4821C38.2033 16.724 38.2112 16.9679 38.1981 17.2113C38.2073 17.5059 38.1981 17.8005 38.1872 18.0951C38.1717 18.4574 38.1223 18.817 38.073 19.1767C38.0527 19.3244 38.0325 19.4721 38.0145 19.62ZM37.896 14.1908C37.904 14.1906 37.9116 14.1907 37.919 14.1912C37.9113 14.1909 37.9037 14.1908 37.896 14.1908ZM27.8891 14.1081C27.8679 14.0703 27.841 14.0351 27.8134 13.9989L27.8134 13.9989C27.7671 13.9381 27.7187 13.8747 27.6915 13.7915C27.53 13.1709 27.1706 12.6198 26.6679 12.2217C26.5422 12.1517 26.4204 12.0748 26.303 11.9915L26.2814 11.9722C26.1826 11.8839 26.1364 11.8426 26.0824 11.8237C26.035 11.8071 25.9816 11.8077 25.8812 11.8089C25.8507 11.8093 25.8158 11.8097 25.7754 11.8097C25.4809 11.7618 25.1803 11.7651 24.8869 11.8195C24.8135 11.8441 24.7442 11.8714 24.6753 11.8985C24.5688 11.9404 24.4635 11.9819 24.346 12.0123C24.2303 12.024 24.1183 12.0595 24.0169 12.1164C23.9127 12.1826 23.8555 12.2748 23.798 12.3675C23.7511 12.4432 23.704 12.5193 23.6308 12.5819C23.5387 12.6632 23.426 12.7176 23.3051 12.739C23.2846 12.7433 23.2669 12.7468 23.2519 12.7495C23.1579 12.8457 23.0952 12.9688 23.0732 13.1027C23.0504 13.1765 23.0086 13.2429 22.952 13.2952C22.9409 13.3539 22.9352 13.4208 22.9293 13.4903C22.9161 13.6438 22.9019 13.8097 22.8265 13.927C22.7224 14.396 22.6851 14.8775 22.7158 15.3572C22.6594 15.8441 22.6742 16.3367 22.7596 16.8194C22.8392 17.0273 22.9407 17.2261 23.0622 17.4126C23.215 17.7204 23.3835 18.0203 23.5669 18.3109C23.7884 18.6158 23.9524 18.9587 24.0508 19.3225C24.1734 19.8831 24.2029 20.4601 24.1383 21.0303C24.1378 21.0446 24.1366 21.0588 24.1347 21.0729C24.1332 21.4165 24.1841 21.7582 24.2853 22.0863C24.3371 22.1406 24.3802 22.201 24.4243 22.2628C24.4861 22.3493 24.5498 22.4385 24.6418 22.5172C24.7668 22.6173 24.9112 22.6905 25.0659 22.7321C25.2206 22.7737 25.3822 22.7828 25.5406 22.7589C25.7473 22.7598 25.9517 22.8027 26.1413 22.8849C26.1985 22.902 26.2261 22.9223 26.2466 22.9375C26.2808 22.9628 26.2955 22.9736 26.3951 22.9304C26.4682 22.897 26.502 22.8299 26.5359 22.7626C26.5575 22.7198 26.5791 22.6769 26.6109 22.6427C26.7077 22.5405 26.8252 22.4938 26.9467 22.4455C27.0208 22.416 27.0964 22.3859 27.1696 22.3423C27.2366 22.3024 27.3001 22.2587 27.3631 22.2143C27.2933 21.7885 27.301 21.3041 27.3058 21.0053C27.307 20.9286 27.308 20.8642 27.3075 20.8161C27.2995 20.0459 27.3513 19.2701 27.4029 18.4973L27.4029 18.4972L27.4029 18.4972L27.4029 18.4971L27.4029 18.497L27.4029 18.4969L27.403 18.4968C27.4254 18.1612 27.4477 17.8262 27.4652 17.4925C27.4677 16.5794 27.5553 15.6689 27.7264 14.7728C27.7227 14.5175 27.7426 14.2622 27.7859 14.0101C27.8266 14.0366 27.8612 14.0711 27.8877 14.1114L27.8891 14.1081Z" fill="#00193C"/>
</svg>
