<svg width="100%" height="100%" viewBox="0 0 356 107" 
preserveAspectRatio="none" fill="none" xmlns="http://www.w3.org/2000/svg">
<g filter="url(#filter0_d_448_6638)">
<path fill-rule="evenodd" clip-rule="evenodd" d="M293.117 5.11436C293.497 5.09003 293.877 5.06565 294.256 5.04111C295.629 4.9529 297.003 4.86723 298.377 4.78159C299.081 4.73767 299.785 4.69376 300.489 4.64951C300.737 4.63335 300.986 4.61357 301.234 4.5938C301.788 4.54968 302.342 4.50558 302.897 4.50157C303.388 4.49904 303.88 4.51913 304.371 4.53922C305.007 4.5652 305.643 4.59118 306.279 4.56828C308.047 4.50447 309.817 4.39714 311.581 4.2289C314.083 3.99104 316.581 3.78508 319.094 3.82859C320.064 3.84545 321.033 3.77402 322.003 3.70255C322.535 3.66334 323.068 3.62411 323.601 3.59944C324.319 3.56643 325.036 3.55833 325.754 3.55023C325.92 3.54837 326.085 3.5465 326.251 3.54433C326.93 3.53549 327.61 3.53003 328.29 3.52456L328.29 3.52455C329.396 3.51566 330.501 3.50676 331.606 3.48341C331.985 3.47621 332.365 3.44768 332.744 3.41915C333.283 3.3787 333.821 3.33826 334.357 3.35867C334.83 3.37547 335.3 3.45944 335.771 3.54348C336.112 3.60451 336.455 3.66557 336.798 3.70097C337.488 3.77348 337.964 4.19118 338.279 4.98598C338.339 5.13683 338.458 5.31377 338.572 5.34858C339.099 5.50522 339.631 5.64156 340.166 5.74018C340.934 5.88232 341.114 6.05346 341.176 7.04551C341.207 7.53864 341.377 7.8026 341.644 8.09557L341.677 8.13297C342.154 8.66064 342.646 9.20479 342.715 10.1116C342.759 10.683 342.942 11.1181 343.293 11.4778C343.687 11.881 343.74 12.6787 343.454 13.2212C343.386 13.349 343.314 13.4736 343.242 13.5982L343.242 13.5987C343.095 13.853 342.949 14.1071 342.841 14.3873C342.724 14.6918 342.638 15.0921 342.684 15.4112C342.718 15.6401 342.807 15.8539 342.896 16.0693L342.896 16.0696C342.968 16.2446 343.041 16.4205 343.085 16.6063C343.102 16.6769 343.12 16.7482 343.138 16.8199L343.138 16.8202C343.256 17.2994 343.379 17.8004 343.354 18.2772C343.315 19.04 343.174 19.8203 342.96 20.5339C342.398 22.4078 343.193 24.476 344.399 25.3956C344.712 25.6363 344.834 25.9061 344.642 26.3383C344.454 26.7618 344.527 27.107 344.717 27.5305C344.988 28.1338 345.191 28.801 345.347 29.4711C345.429 29.8192 345.383 30.2427 345.328 30.614C345.287 30.8879 345.224 31.1566 345.161 31.4254L345.161 31.426L345.161 31.4264C345.093 31.7207 345.024 32.0151 344.984 32.3167C344.938 32.6627 344.866 32.9855 344.773 33.29C344.914 33.3229 345.055 33.3556 345.196 33.3883C345.375 33.4299 345.555 33.4716 345.734 33.5135C346.063 33.5907 346.392 33.6626 346.721 33.7345C347.201 33.8391 347.68 33.9437 348.157 34.065C348.248 34.0879 348.341 34.1087 348.435 34.1296C348.827 34.217 349.227 34.3065 349.547 34.5602C349.992 34.9111 350.402 35.342 350.812 35.7731C351.028 36.0013 351.245 36.2295 351.468 36.446C351.817 36.787 352.013 37.1488 351.774 37.7329C351.72 37.8634 351.711 38.0858 351.758 38.2192C351.97 38.8052 351.884 39.379 351.798 39.9531L351.798 39.9534C351.75 40.2769 351.702 40.6005 351.706 40.9264C351.713 41.3435 351.676 41.7606 351.64 42.1777C351.624 42.3596 351.608 42.5415 351.596 42.7234C351.592 42.7781 351.591 42.8425 351.591 42.9077C351.589 43.072 351.587 43.2418 351.535 43.2778C350.947 43.6781 350.965 44.0933 351.22 44.8879C351.393 45.4276 351.598 45.9228 351.821 46.415C351.844 46.4652 351.878 46.5117 351.912 46.5575C351.963 46.6283 352.014 46.6976 352.022 46.7768C352.11 47.5981 352.392 48.2623 352.874 48.7961C352.95 48.8791 353 49.0629 353 49.1993C353 49.7212 353 50.2461 352.953 50.7531C352.929 50.9646 352.867 51.168 352.804 51.3721C352.76 51.5172 352.715 51.6626 352.685 51.8117C352.669 51.8861 352.65 51.9645 352.631 52.0445C352.562 52.3309 352.489 52.6359 352.563 52.8376C352.73 53.2913 352.712 53.6649 352.597 54.0978C352.531 54.344 352.493 54.6108 352.486 54.8718C352.466 55.7761 352.074 56.4789 351.398 56.7131C351.073 56.8258 350.92 57.0541 350.888 57.49C350.848 58.0653 350.634 58.5071 350.178 58.6316C350.039 58.6689 349.899 58.709 349.759 58.7492C349.264 58.8913 348.766 59.0342 348.267 59.0527C347.841 59.069 347.412 59.0009 346.982 58.9326C346.711 58.8894 346.439 58.8462 346.167 58.8244C345.829 58.7977 345.432 58.8659 345.369 59.4115C345.33 59.7465 345.299 60.0831 345.272 60.4203C345.299 60.5223 345.324 60.6246 345.347 60.727C345.429 61.075 345.383 61.4986 345.328 61.8699C345.287 62.1438 345.224 62.4125 345.161 62.6812L345.161 62.6819L345.161 62.6822C345.093 62.9765 345.024 63.271 344.984 63.5726C344.905 64.171 344.746 64.7 344.537 65.1855C344.757 65.2368 344.976 65.2877 345.195 65.3386C345.375 65.3803 345.555 65.422 345.734 65.4639C346.063 65.5411 346.392 65.613 346.721 65.6848C347.201 65.7895 347.68 65.8941 348.157 66.0154C348.248 66.0383 348.341 66.0591 348.435 66.08C348.827 66.1674 349.227 66.2569 349.547 66.5106C349.992 66.8615 350.402 67.2924 350.812 67.7235L350.812 67.724C351.029 67.952 351.245 68.1801 351.468 68.3964C351.817 68.7374 352.013 69.0992 351.774 69.6833C351.72 69.8138 351.711 70.0362 351.758 70.1696C351.97 70.7556 351.884 71.3294 351.798 71.9035V71.9038C351.75 72.2273 351.702 72.5509 351.706 72.8769C351.713 73.2939 351.676 73.711 351.64 74.1281C351.624 74.31 351.608 74.4919 351.596 74.6738C351.592 74.7285 351.591 74.7929 351.591 74.8581C351.589 75.0224 351.587 75.1922 351.535 75.2282C350.947 75.6285 350.965 76.0437 351.22 76.8383C351.393 77.378 351.598 77.8732 351.821 78.3654C351.844 78.4155 351.878 78.4619 351.912 78.5078L351.912 78.5079C351.963 78.5787 352.014 78.648 352.022 78.7272C352.11 79.5485 352.392 80.2127 352.874 80.7465C352.95 80.8295 353 81.0133 353 81.1497C353 81.6716 353 82.1965 352.953 82.7035C352.929 82.915 352.867 83.1184 352.804 83.3225C352.76 83.4676 352.715 83.613 352.685 83.7621C352.669 83.8362 352.651 83.9143 352.631 83.9939L352.631 83.9949C352.562 84.2813 352.489 84.5863 352.563 84.788C352.73 85.2417 352.712 85.6153 352.597 86.0482C352.531 86.2944 352.493 86.5612 352.486 86.8222C352.466 87.7265 352.074 88.4293 351.398 88.6636C351.073 88.7762 350.92 89.0045 350.888 89.4404C350.848 90.0157 350.634 90.4575 350.178 90.582C350.039 90.6193 349.899 90.6594 349.759 90.6996C349.264 90.8417 348.766 90.9846 348.267 91.0031C347.841 91.0194 347.412 90.9513 346.982 90.883L346.982 90.883C346.71 90.8398 346.439 90.7966 346.167 90.7748C345.829 90.7481 345.432 90.8163 345.369 91.3619C345.302 91.9338 345.26 92.5104 345.219 93.087V93.0872L345.219 93.0904C345.187 93.538 345.154 93.9855 345.11 94.4309C345.081 94.7363 345.018 95.1158 344.862 95.3085C344.707 95.5026 344.614 95.7637 344.521 96.0241C344.37 96.448 344.22 96.8701 343.803 96.9987C343.769 97.0106 343.742 97.1055 343.731 97.1677C343.596 97.9179 343.194 98.2263 342.651 98.3597C342.527 98.3911 342.411 98.473 342.295 98.5554C342.202 98.6209 342.109 98.6867 342.011 98.7274C341.989 98.7368 341.966 98.7466 341.944 98.7565C341.902 98.775 341.859 98.7942 341.817 98.8134C341.567 98.9273 341.311 99.0434 341.065 99.0269C340.266 98.9733 339.468 98.901 338.67 98.8287C337.615 98.7331 336.559 98.6374 335.503 98.5851C334.673 98.5465 333.833 98.68 333.012 98.849C332.799 98.8943 332.601 99.0451 332.401 99.1969C332.247 99.3134 332.093 99.4305 331.931 99.5013C331.747 99.5813 331.551 99.6225 331.356 99.6634C331.082 99.7211 330.809 99.7783 330.578 99.9431C329.814 100.489 329.014 100.45 328.223 100.367C327.605 100.302 326.987 100.196 326.37 100.09C325.473 99.9356 324.576 99.7815 323.675 99.7534C321.854 99.697 320.027 99.8275 318.21 100.02C316.312 100.222 314.43 100.046 312.547 99.8694C312.129 99.8304 311.712 99.7913 311.294 99.7563C311.193 99.748 311.094 99.7108 310.995 99.6737C310.884 99.6319 310.773 99.5903 310.661 99.5903C310.194 99.5942 309.728 99.6166 309.262 99.639C309.028 99.6502 308.794 99.6614 308.56 99.6703C308.31 99.68 308.059 99.6771 307.807 99.6742C307.285 99.6682 306.763 99.6622 306.255 99.7682C305.146 100 304.042 99.9485 302.938 99.8964C302.675 99.884 302.412 99.8716 302.148 99.8631C301.514 99.8424 300.879 99.819 300.244 99.7956L300.244 99.7956C298.972 99.7488 297.7 99.702 296.426 99.6763C295.9 99.6645 295.373 99.6777 294.847 99.6909H294.847C294.186 99.7075 293.525 99.7241 292.866 99.6911C291.277 99.611 289.686 99.4717 288.101 99.2849C287.264 99.1864 286.427 99.0632 285.592 98.9352C285.388 98.9491 285.185 98.9639 284.981 98.9787L284.981 98.9788C284.366 99.0236 283.751 99.0684 283.136 99.0863C282.297 99.1114 281.457 99.0972 280.617 99.083H280.616C280.294 99.0775 279.971 99.0721 279.648 99.0689L279.407 99.0663C278.686 99.0587 277.965 99.0512 277.243 99.0225C276.68 98.999 276.117 98.9648 275.554 98.9305L275.552 98.9304C274.443 98.8628 273.333 98.7953 272.225 98.8107C270.198 98.8387 268.169 98.9303 266.141 99.0219L266.139 99.022C265.431 99.054 264.723 99.086 264.015 99.1153C263.199 99.1489 262.383 99.1894 261.566 99.2299C260.061 99.3045 258.555 99.3792 257.048 99.4112C254.618 99.4631 252.188 99.4665 249.756 99.47C249.333 99.4706 248.91 99.4712 248.488 99.4721C247.137 99.4752 245.787 99.468 244.436 99.4609C243.311 99.4549 242.186 99.4489 241.06 99.4489C240.244 99.4489 239.427 99.4576 238.611 99.4664C237.868 99.4743 237.126 99.4823 236.384 99.4837C235.828 99.4837 235.273 99.4721 234.719 99.4141C234.495 99.3902 234.272 99.3403 234.048 99.2903C233.756 99.2249 233.463 99.1596 233.17 99.153C232.574 99.1413 231.979 99.173 231.383 99.2047C231.095 99.22 230.806 99.2354 230.517 99.2458C230.256 99.2553 229.995 99.2604 229.733 99.2655C229.356 99.2729 228.978 99.2803 228.602 99.3009C228.224 99.3226 227.847 99.3543 227.47 99.386L227.469 99.3861C226.834 99.4394 226.2 99.4927 225.566 99.4982C224.674 99.5052 223.781 99.489 222.889 99.4728H222.889C221.945 99.4556 221.001 99.4384 220.058 99.4489C219.331 99.456 218.602 99.4965 217.874 99.537C217.115 99.5792 216.357 99.6214 215.598 99.6258C214.293 99.6355 212.987 99.5821 211.681 99.5286C211.43 99.5183 211.178 99.508 210.927 99.4982C210.562 99.4843 210.197 99.4537 209.831 99.423L209.831 99.423C209.283 99.3771 208.734 99.3311 208.186 99.3415C207.693 99.3509 207.199 99.4034 206.706 99.4558C206.129 99.5172 205.553 99.5785 204.976 99.5707C203.628 99.5526 202.28 99.4657 200.932 99.3787C200.551 99.3542 200.171 99.3297 199.791 99.3067C199.499 99.2895 199.208 99.2553 198.917 99.2211C198.669 99.192 198.421 99.163 198.173 99.1443C197.694 99.1076 197.214 99.0828 196.734 99.058L196.733 99.0579C195.773 99.0083 194.813 98.9586 193.86 98.8136C191.226 98.4133 188.598 98.4539 185.968 98.7585C185.294 98.8364 184.624 98.9679 183.953 99.0995C183.376 99.2128 182.798 99.3262 182.218 99.4054C180.231 99.678 178.245 99.942 176.254 100.11C174.683 100.245 173.109 100.305 171.536 100.365C171.142 100.381 170.748 100.396 170.354 100.412C170.067 100.424 169.779 100.405 169.492 100.386L169.492 100.386C169.288 100.373 169.083 100.359 168.879 100.357C168.48 100.353 168.08 100.356 167.68 100.359H167.68C167.051 100.363 166.422 100.368 165.793 100.348C165.302 100.334 164.811 100.299 164.32 100.263C163.813 100.227 163.306 100.19 162.799 100.177C162.104 100.159 161.408 100.158 160.713 100.157H160.712C160.079 100.157 159.446 100.156 158.813 100.142C157.281 100.11 155.747 100.049 154.213 99.9884L154.212 99.9884C153.289 99.9513 152.366 99.9043 151.443 99.8574L151.415 99.856C151.12 99.841 150.826 99.8261 150.532 99.8115C149.398 99.7529 148.266 99.6916 147.132 99.6303L146.996 99.6229C146.028 99.5707 145.06 99.5185 144.094 99.4547C143.305 99.4022 142.516 99.3458 141.727 99.2893L141.721 99.2889C140.287 99.1862 138.852 99.0836 137.417 99.0051C136.529 98.9571 135.64 98.9312 134.751 98.9052L134.75 98.9052H134.75C133.756 98.8762 132.763 98.8472 131.77 98.7875C130.652 98.7193 129.533 98.6265 128.415 98.5337L128.414 98.5336C127.296 98.4408 126.178 98.348 125.059 98.2799C124.285 98.2318 123.508 98.2254 122.731 98.219H122.73C122.147 98.2142 121.565 98.2094 120.983 98.187C119.244 98.1171 117.507 98.0272 115.768 97.9372C115.415 97.9189 115.062 97.9006 114.708 97.8825C114.393 97.8661 114.078 97.8416 113.762 97.8172L113.761 97.8171C113.295 97.781 112.829 97.7449 112.363 97.7345C112.086 97.7277 111.807 97.7487 111.529 97.7697C111.217 97.7931 110.906 97.8166 110.597 97.8012C110.073 97.7754 109.55 97.724 109.028 97.6726L109.027 97.6726C108.554 97.626 108.08 97.5794 107.605 97.5518C107.065 97.5198 106.523 97.5039 105.981 97.4881H105.981C105.248 97.4667 104.514 97.4453 103.782 97.3835C102.806 97.3011 101.83 97.1933 100.853 97.0855L100.853 97.0855C99.9058 96.9808 98.9584 96.8761 98.0104 96.7947C97.6762 96.7657 97.3419 96.7401 97.0074 96.7168C96.9107 96.7216 96.814 96.7264 96.7173 96.7311L96.715 96.7312H96.7149C95.2097 96.8055 93.7037 96.8798 92.1976 96.8712C90.5847 96.8618 88.9728 96.7931 87.3606 96.7243H87.3604C86.4248 96.6844 85.4891 96.6445 84.5532 96.6162C81.2516 96.5183 77.9477 96.4264 74.6461 96.3553C73.055 96.3197 71.464 96.3138 69.8729 96.3493C69.4099 96.3601 68.947 96.4246 68.484 96.4891C68.1785 96.5317 67.8729 96.5743 67.5674 96.6014C65.7622 96.7585 63.957 96.9098 62.1518 97.0402C60.3667 97.1672 58.5802 97.2817 56.7934 97.3961L56.7857 97.3966C56.281 97.4289 55.7762 97.4613 55.2714 97.4939C53.8704 97.5839 52.4684 97.6713 51.0668 97.7588L51.0597 97.7592C50.3397 97.8041 49.6199 97.849 48.9003 97.8942C48.6464 97.9107 48.3925 97.9309 48.1387 97.9511C47.5722 97.9962 47.0058 98.0413 46.4393 98.0454C45.9371 98.048 45.4345 98.0275 44.9318 98.0069H44.9317C44.2817 97.9804 43.6316 97.9538 42.9822 97.9772C41.1748 98.0425 39.3651 98.1522 37.5622 98.3242C35.0043 98.5673 32.4509 98.7778 29.8817 98.7334C28.8908 98.7161 27.8999 98.7891 26.9083 98.8622L26.9081 98.8622L26.9079 98.8622C26.3639 98.9023 25.8197 98.9424 25.2752 98.9676C24.5411 99.0013 23.8085 99.0096 23.075 99.0179L23.0739 99.0179C22.9048 99.0198 22.7356 99.0217 22.5663 99.0239C21.8714 99.033 21.1764 99.0386 20.4815 99.0442H20.4809C19.3508 99.0532 18.2211 99.0623 17.0922 99.0862C16.7044 99.0936 16.3163 99.1227 15.9282 99.1519C15.3781 99.1932 14.8281 99.2346 14.2796 99.2137C13.7966 99.1965 13.3158 99.1107 12.8347 99.0248L12.8345 99.0248C12.4851 98.9624 12.1356 98.9 11.7848 98.8638C11.0794 98.7897 10.5926 98.3627 10.2703 97.5502C10.2095 97.396 10.0878 97.2152 9.97063 97.1796C9.432 97.0195 8.88887 96.8801 8.34123 96.7793C7.55696 96.634 7.37214 96.459 7.30904 95.4449C7.27749 94.9409 7.10397 94.671 6.83128 94.3715L6.79674 94.3333C6.30921 93.7939 5.80644 93.2377 5.73599 92.3107C5.69092 91.7266 5.50386 91.2818 5.14553 90.9141C4.74212 90.502 4.68805 89.6865 4.98103 89.132C5.04997 89.0014 5.12355 88.8739 5.19711 88.7464L5.19729 88.7461C5.34729 88.4862 5.49719 88.2265 5.60755 87.94C5.72699 87.6287 5.81488 87.2195 5.76755 86.8933C5.73272 86.6593 5.64227 86.4406 5.55116 86.2203C5.47721 86.0415 5.40282 85.8616 5.35738 85.6717C5.34008 85.5995 5.32212 85.5267 5.30404 85.4533C5.18323 84.9633 5.05695 84.4512 5.08243 83.9637C5.123 83.1839 5.26725 82.3862 5.48585 81.6568C6.06054 79.7413 5.24693 77.6271 4.01418 76.6871C3.69416 76.441 3.57023 76.1653 3.76629 75.7234C3.95786 75.2905 3.88349 74.9377 3.68968 74.5047C3.41248 73.888 3.20515 73.206 3.04514 72.521C2.96176 72.1652 3.00907 71.7323 3.06541 71.3527C3.10736 71.0725 3.1714 70.7976 3.23546 70.5227L3.23547 70.5227L3.23547 70.5226C3.3056 70.2216 3.37575 69.9205 3.41698 69.6122C3.63068 67.985 4.42466 66.8607 5.21926 65.7356C5.2508 65.6909 5.28234 65.6463 5.31384 65.6016C5.25618 65.5412 5.19861 65.4807 5.14105 65.4201L5.14059 65.4196C4.92868 65.1966 4.7167 64.9735 4.49944 64.7619C4.15774 64.4283 3.96591 64.0744 4.19961 63.503C4.25253 63.3753 4.26135 63.1578 4.21505 63.0272C4.00778 62.4541 4.09175 61.8927 4.17577 61.3311L4.17577 61.3311C4.22314 61.0145 4.2705 60.6978 4.26574 60.3789C4.25961 59.9709 4.29516 59.5629 4.33071 59.1548C4.34622 58.9769 4.36172 58.799 4.37377 58.621C4.37753 58.5674 4.37826 58.5044 4.37899 58.4406L4.379 58.4403C4.38089 58.2797 4.38284 58.1139 4.43331 58.0786C4.62034 57.9513 4.74471 57.8225 4.81885 57.6799C4.83698 57.5665 4.86579 57.4556 4.90524 57.3507C4.91755 57.1207 4.85258 56.8487 4.74197 56.5035C4.5722 55.9756 4.37158 55.4911 4.15331 55.0096C4.13081 54.9606 4.09777 54.9153 4.06516 54.8705L4.06494 54.8702L4.0649 54.8701C4.01449 54.8009 3.96511 54.7331 3.95709 54.6557C3.87112 53.8522 3.59554 53.2025 3.12374 52.6803C3.04879 52.5991 3.00027 52.4193 3.00027 52.2858C3.00027 51.7753 3.00027 51.2619 3.04656 50.7658C3.06979 50.559 3.13064 50.36 3.19174 50.1603L3.19177 50.1602C3.23519 50.0183 3.27872 49.876 3.30892 49.7303C3.32379 49.6576 3.34222 49.581 3.36099 49.503L3.36108 49.5026C3.42855 49.2224 3.50036 48.924 3.42797 48.7266C3.26483 48.2828 3.28246 47.9173 3.39492 47.4938C3.45886 47.253 3.49633 46.992 3.50292 46.7367C3.5205 45.9539 3.82288 45.3255 4.3505 45.0324C4.24266 44.9242 4.13029 44.8252 4.01421 44.7367C3.69419 44.4906 3.57024 44.2148 3.76631 43.773C3.95787 43.3401 3.88351 42.9873 3.68969 42.5543C3.41249 41.9376 3.20516 41.2556 3.04515 40.5706C2.96177 40.2148 3.00908 39.7819 3.06543 39.4023C3.10738 39.1221 3.17142 38.8472 3.23548 38.5722C3.30561 38.2712 3.37576 37.9701 3.41698 37.6618C3.61392 36.1622 4.3037 35.0898 5.0326 34.0501C4.85653 33.8653 4.6798 33.6817 4.49944 33.506C4.15771 33.1724 3.96591 32.8185 4.19961 32.2471C4.25253 32.1195 4.26135 31.9019 4.21502 31.7714C4.00778 31.1982 4.09175 30.6368 4.17576 30.0752L4.17577 30.0752C4.22314 29.7586 4.2705 29.4419 4.26574 29.123C4.25961 28.715 4.29516 28.307 4.33071 27.899C4.34622 27.721 4.36172 27.5431 4.37377 27.3652C4.37753 27.3116 4.37826 27.2486 4.37899 27.1848C4.38085 27.0241 4.38281 26.858 4.43328 26.8227C5.00872 26.4311 4.99108 26.025 4.74194 25.2476C4.5722 24.7197 4.37158 24.2353 4.15331 23.7537C4.13076 23.7047 4.09765 23.6592 4.06497 23.6143C4.01452 23.5451 3.96511 23.4773 3.95709 23.3998C3.87112 22.5963 3.59551 21.9466 3.12371 21.4245C3.04876 21.3432 3.00027 21.1634 3.00027 21.03C3.00027 20.5194 3.00027 20.006 3.04656 19.51C3.06975 19.3032 3.13058 19.1043 3.19165 18.9047L3.19174 18.9044L3.19178 18.9043C3.23519 18.7624 3.27872 18.6201 3.30892 18.4744C3.32381 18.4018 3.34226 18.3252 3.36104 18.2471L3.36117 18.2466C3.42858 17.9664 3.50036 17.668 3.42797 17.4707C3.26483 17.0269 3.28246 16.6614 3.39489 16.2379C3.45883 15.9972 3.4963 15.7361 3.50292 15.4809C3.52276 14.5961 3.90637 13.9086 4.56777 13.6795C4.88525 13.5693 5.03518 13.3459 5.06603 12.9195C5.10571 12.3568 5.31515 11.9245 5.76049 11.8027C5.89667 11.7664 6.03303 11.7272 6.1696 11.688L6.17077 11.6877L6.17082 11.6877C6.65521 11.5486 7.14195 11.4089 7.63006 11.3908C8.04721 11.3748 8.46684 11.4415 8.88692 11.5083L8.88699 11.5083C9.15292 11.5505 9.41903 11.5928 9.68481 11.6142C10.0155 11.6403 10.4035 11.5736 10.4653 11.0398C10.531 10.4803 10.5716 9.91627 10.6122 9.35225L10.6122 9.352C10.6438 8.91309 10.6754 8.47421 10.7188 8.03756C10.7475 7.73878 10.8092 7.36749 10.9613 7.17895C11.1132 6.98907 11.204 6.73367 11.2947 6.47892C11.4422 6.06425 11.5892 5.65131 11.9975 5.52552C12.0306 5.51392 12.057 5.4211 12.068 5.36018C12.2003 4.6263 12.5928 4.32462 13.1241 4.19409C13.2456 4.16341 13.3589 4.0833 13.4727 4.00277L13.4728 4.00272C13.5634 3.93861 13.6544 3.87425 13.7502 3.8344C13.813 3.80805 13.8764 3.77924 13.94 3.75027L13.9401 3.75027C14.185 3.63889 14.4347 3.52531 14.6762 3.54142C15.4573 3.59387 16.238 3.6646 17.0186 3.73532L17.0187 3.73532C18.0514 3.82888 19.084 3.92242 20.1173 3.97363C20.9286 4.01134 21.7509 3.88081 22.5535 3.71547C22.7618 3.67113 22.9561 3.52367 23.1518 3.37508C23.3019 3.26114 23.4528 3.14655 23.6117 3.07731C23.7909 2.9991 23.9827 2.95882 24.1733 2.91879L24.1734 2.91878L24.1734 2.91877C24.4422 2.86231 24.7087 2.80634 24.9345 2.6451C25.6819 2.11137 26.4645 2.14907 27.2384 2.23029C27.8436 2.29409 28.4473 2.39783 29.0508 2.50153L29.051 2.50156L29.0511 2.50157C29.9292 2.65245 30.8067 2.80324 31.6874 2.83074C33.4687 2.88586 35.2567 2.75822 37.0337 2.56968C38.1493 2.45128 39.259 2.46616 40.3667 2.5343C40.7763 2.51476 41.186 2.49766 41.5956 2.48056C42.3549 2.44887 43.1142 2.41718 43.8724 2.37001C44.5281 2.32922 45.1833 2.27041 45.8385 2.2116C46.7553 2.12932 47.6719 2.04704 48.5893 2.01418C51.3741 1.916 54.1596 1.83582 56.9454 1.75564L56.9454 1.75564C58.955 1.6978 60.9647 1.63995 62.9744 1.57534C63.5672 1.55519 64.16 1.512 64.7528 1.46881C65.3815 1.423 66.0102 1.37719 66.6389 1.35888C67.4968 1.33317 68.356 1.3477 69.2146 1.36222C69.5446 1.3678 69.8745 1.37337 70.2042 1.37667L70.4514 1.3793C71.1875 1.38703 71.9252 1.39478 72.6629 1.42411C73.2392 1.44809 73.8154 1.48317 74.3916 1.51824C75.5257 1.58728 76.6595 1.6563 77.7922 1.64057C79.8648 1.612 81.9386 1.51831 84.0118 1.42463L84.0119 1.42463C84.7364 1.3919 85.4607 1.35917 86.1849 1.32922C87.0192 1.29482 87.8536 1.25345 88.6881 1.21208C90.227 1.13578 91.7663 1.05946 93.3064 1.02677C95.7907 0.973729 98.275 0.970175 100.761 0.96662C101.193 0.966002 101.625 0.965384 102.057 0.964506C103.438 0.961271 104.818 0.968623 106.199 0.975974C107.349 0.982101 108.5 0.988227 109.65 0.988227C110.485 0.988227 111.319 0.979278 112.154 0.970328C112.913 0.962193 113.671 0.954057 114.43 0.952645C114.998 0.952645 115.566 0.964506 116.131 1.02381C116.361 1.0482 116.589 1.09925 116.817 1.15027C117.117 1.21713 117.415 1.28395 117.716 1.29068C118.324 1.30266 118.933 1.27026 119.542 1.23786C119.837 1.22215 120.132 1.20644 120.427 1.19579C120.694 1.18609 120.961 1.18086 121.228 1.17562C121.615 1.16805 122 1.16049 122.385 1.13945C122.771 1.11732 123.157 1.08487 123.543 1.05242C124.192 0.99791 124.84 0.943395 125.489 0.937819C126.401 0.930616 127.313 0.947208 128.224 0.963794C129.189 0.98135 130.154 0.9989 131.118 0.988227C131.862 0.980966 132.607 0.939561 133.351 0.898155C134.127 0.855022 134.902 0.811889 135.677 0.80735C137.011 0.797406 138.347 0.852076 139.681 0.906702C139.939 0.91723 140.196 0.927757 140.453 0.937819C140.826 0.952047 141.199 0.983342 141.573 1.01464C142.134 1.06162 142.694 1.10862 143.254 1.09794C143.759 1.08837 144.263 1.03473 144.767 0.981121C145.357 0.918389 145.946 0.855695 146.536 0.863689C147.914 0.882192 149.292 0.971053 150.67 1.05991C151.059 1.08498 151.447 1.11004 151.836 1.13352C152.135 1.15115 152.432 1.18609 152.73 1.22103C152.983 1.25076 153.237 1.28049 153.49 1.29957C153.98 1.33713 154.471 1.3625 154.962 1.38787C155.943 1.43861 156.925 1.48935 157.899 1.6376C160.592 2.0468 163.278 2.00529 165.967 1.69394C166.656 1.61429 167.341 1.47986 168.026 1.34537L168.026 1.34534C168.616 1.22952 169.207 1.11365 169.8 1.03271C171.831 0.753977 173.861 0.484144 175.896 0.312163C177.502 0.174617 179.111 0.112937 180.719 0.0512783L180.719 0.051271C181.122 0.0358368 181.525 0.0204038 181.927 0.00378234C182.221 -0.00835818 182.515 0.0109488 182.809 0.0302559C183.018 0.0439576 183.226 0.0576594 183.435 0.0601211C183.843 0.0635797 184.252 0.060763 184.661 0.0579448C185.303 0.0535147 185.947 0.049081 186.59 0.0690166C187.092 0.0835999 187.594 0.1197 188.095 0.1558C188.613 0.193101 189.132 0.230401 189.65 0.243963C190.361 0.262602 191.072 0.263341 191.784 0.264081C192.431 0.264753 193.078 0.265426 193.725 0.279546C195.291 0.312163 196.86 0.374432 198.428 0.436701C199.371 0.474627 200.315 0.522623 201.258 0.570588L201.259 0.570599C201.569 0.586382 201.879 0.602162 202.19 0.617578C203.35 0.677485 204.508 0.740136 205.667 0.802891L205.668 0.802908L205.805 0.810316L205.805 0.810327C206.794 0.863696 207.783 0.917067 208.77 0.982297C209.579 1.03603 210.388 1.09388 211.196 1.15173L211.196 1.15174C212.663 1.25669 214.129 1.36162 215.597 1.4419C216.505 1.49091 217.413 1.51744 218.322 1.54397C219.338 1.57361 220.354 1.60326 221.368 1.66429C222.512 1.73397 223.655 1.82886 224.798 1.92375C225.942 2.01863 227.085 2.11352 228.228 2.1832C229.02 2.23234 229.815 2.23887 230.609 2.24541C231.205 2.25031 231.801 2.25521 232.395 2.27809C234.173 2.34956 235.949 2.44152 237.726 2.53353C238.087 2.55222 238.448 2.57091 238.809 2.58943C239.132 2.6062 239.454 2.63119 239.777 2.6562C240.254 2.69311 240.73 2.73005 241.207 2.74066C241.49 2.74766 241.775 2.72621 242.06 2.70475C242.378 2.68079 242.696 2.65681 243.012 2.67246C243.548 2.6989 244.082 2.75143 244.616 2.80398C245.101 2.85162 245.585 2.89926 246.071 2.92747C246.623 2.96021 247.177 2.97638 247.73 2.99254C248.48 3.01444 249.231 3.03634 249.979 3.09945C250.977 3.18371 251.975 3.29393 252.972 3.40415L252.973 3.40417C253.941 3.51115 254.91 3.61813 255.879 3.70138C257.006 3.7993 258.136 3.85916 259.265 3.91901C259.743 3.94435 260.221 3.96968 260.699 3.9979C261.335 4.03549 261.972 4.0694 262.608 4.10331C264.029 4.17904 265.45 4.25476 266.87 4.37152C267.494 4.42293 268.118 4.48319 268.741 4.54344C270.958 4.75772 273.174 4.9718 275.404 4.78664C276.286 4.71386 277.174 4.73623 278.061 4.75857C278.366 4.76626 278.672 4.77395 278.976 4.77775C279.861 4.78961 280.745 4.79944 281.63 4.80926C284.282 4.83873 286.935 4.8682 289.587 4.95269C290.764 4.99006 291.94 5.048 293.117 5.11436Z" fill="#00193C"/>
</g>
<defs>
<filter id="filter0_d_448_6638" x="0" y="0" width="356" height="106.416" filterUnits="userSpaceOnUse" color-interpolation-filters="sRGB">
<feFlood flood-opacity="0" result="BackgroundImageFix"/>
<feColorMatrix in="SourceAlpha" type="matrix" values="0 0 0 0 0 0 0 0 0 0 0 0 0 0 0 0 0 0 127 0" result="hardAlpha"/>
<feOffset dy="3"/>
<feGaussianBlur stdDeviation="1.5"/>
<feComposite in2="hardAlpha" operator="out"/>
<feColorMatrix type="matrix" values="0 0 0 0 0.241667 0 0 0 0 0.241667 0 0 0 0 0.241667 0 0 0 0.05 0"/>
<feBlend mode="normal" in2="BackgroundImageFix" result="effect1_dropShadow_448_6638"/>
<feBlend mode="normal" in="SourceGraphic" in2="effect1_dropShadow_448_6638" result="shape"/>
</filter>
</defs>
</svg>
