<svg width="55" height="26" viewBox="0 0 55 26" fill="none" xmlns="http://www.w3.org/2000/svg">
<path fill-rule="evenodd" clip-rule="evenodd" d="M2.34246 1.93222C2.27906 1.94292 2.21526 1.95369 2.15087 1.96371L2.15015 1.96212C2.13984 1.96222 2.12214 1.96157 2.09888 1.96073C1.93048 1.95462 1.47023 1.93792 1.40603 2.11414C1.38008 2.18488 1.34439 2.23748 1.30856 2.29029C1.28675 2.32244 1.26489 2.35467 1.24514 2.39111C1.23063 2.41785 1.21522 2.44385 1.19975 2.46997C1.15304 2.5488 1.1057 2.62873 1.08028 2.73335C1.03385 2.92437 0.984895 3.15199 1.03673 3.37405C1.08316 3.57223 1.08856 3.75211 1.04429 3.9471C1.02017 4.05296 1.01945 4.15244 1.0648 4.23522C1.12743 4.35062 1.13715 4.49787 1.12707 4.66899C1.12368 4.72634 1.13565 4.79014 1.14684 4.84982C1.1487 4.85971 1.15053 4.86949 1.15227 4.8791C1.16703 4.95949 1.18539 5.03828 1.2059 5.1123C1.22462 5.17996 1.2473 5.24363 1.27105 5.30332C1.28171 5.32969 1.2765 5.35286 1.27126 5.37613C1.26606 5.39922 1.26084 5.42242 1.27105 5.44897C1.33044 5.60338 1.3236 5.66625 1.23722 5.71958C1.1283 5.78668 1.07688 5.82864 0.978487 5.90892C0.971849 5.91434 0.964997 5.91993 0.9579 5.92572C0.90785 5.96613 0.864171 6.04734 0.821199 6.12723C0.80916 6.14961 0.797177 6.17189 0.785126 6.19314C0.747998 6.25788 0.713655 6.33102 0.679336 6.4041C0.672731 6.41817 0.666127 6.43223 0.659504 6.44624C0.650224 6.46588 0.639809 6.48496 0.629334 6.50416C0.602024 6.55421 0.574304 6.60502 0.565199 6.66829C0.539283 6.85215 0.528844 7.04794 0.519486 7.24055C0.515886 7.31695 0.522365 7.41087 0.540362 7.47454C0.602273 7.69342 0.612712 7.92582 0.602633 8.17414C0.601062 8.21584 0.647542 8.29042 0.687028 8.35378C0.710857 8.39202 0.732139 8.42617 0.738777 8.44654C0.754291 8.49418 0.771253 8.50665 0.780725 8.51361C0.791031 8.52119 0.792469 8.52224 0.773525 8.55501C0.765429 8.56905 0.763097 8.57693 0.763889 8.5809C0.682722 8.62124 0.730222 8.64974 0.775759 8.67707C0.821687 8.70463 0.865619 8.73099 0.773525 8.76709C0.709226 8.79251 0.741089 8.87262 0.773193 8.95333C0.805428 9.03438 0.837907 9.11604 0.773525 9.14355C0.758935 9.1497 0.744062 9.15528 0.729105 9.16089C0.666575 9.18436 0.602561 9.20839 0.551438 9.27647C0.480351 9.37068 0.414959 9.48633 0.349525 9.60205C0.3149 9.66329 0.280264 9.72455 0.244765 9.78266C0.188973 9.87419 0.157658 9.97129 0.195812 10.1281C0.204451 10.1631 0.20589 10.2228 0.198332 10.2586C0.164494 10.4159 0.178204 10.5699 0.191922 10.724C0.199654 10.8109 0.207389 10.8978 0.20661 10.9853C0.205608 11.0972 0.211413 11.2092 0.217219 11.3212C0.21975 11.37 0.222281 11.4188 0.224248 11.4676C0.224862 11.4823 0.224981 11.4996 0.225102 11.5171C0.225407 11.5612 0.225722 11.6067 0.233966 11.6164C0.327912 11.7239 0.325032 11.8353 0.284359 12.0486C0.256643 12.1934 0.223888 12.3264 0.188253 12.4585C0.184572 12.4719 0.179163 12.4844 0.173825 12.4967C0.165593 12.5157 0.157528 12.5343 0.156218 12.5556C0.14218 12.7761 0.0971867 12.9543 0.0201583 13.0976C0.00792015 13.1199 0 13.1692 0 13.2058C0 13.3459 0 13.4868 0.0075602 13.6229C0.0113478 13.6797 0.021286 13.7342 0.0312623 13.789C0.0383513 13.828 0.0454595 13.867 0.0503938 13.907C0.0528278 13.927 0.0558443 13.9481 0.0589162 13.9695C0.0699268 14.0464 0.0816508 14.1283 0.0698309 14.1824C0.0431949 14.3042 0.0460744 14.4045 0.0644316 14.5207C0.0748701 14.5867 0.0809892 14.6584 0.082069 14.7284C0.0853085 14.9712 0.147939 15.1598 0.255923 15.2227C0.307755 15.2529 0.332231 15.3142 0.337271 15.4312C0.341448 15.5307 0.323361 15.5553 0.32948 15.5691C0.33285 15.5767 0.343565 15.5811 0.369389 15.593C0.379121 15.5936 0.386916 15.5962 0.393111 15.6003C0.360528 15.617 0.32798 15.6339 0.295526 15.6516C0.277889 15.6611 0.257729 15.677 0.246211 15.7049C0.154775 15.9275 0.15786 16.1399 0.161564 16.395C0.163633 16.5375 0.165896 16.6933 0.151959 16.8717C0.145375 16.9545 0.134171 17.0353 0.12297 17.1161C0.112739 17.1899 0.102511 17.2636 0.0958092 17.3389C0.0868105 17.4407 0.0792521 17.5569 0.0925701 17.6525C0.118126 17.8363 0.15124 18.0194 0.195514 18.1849C0.226469 18.3011 0.238347 18.3958 0.207752 18.512C0.201706 18.5349 0.195915 18.5695 0.189419 18.6082C0.166829 18.7429 0.135724 18.9284 0.0557642 18.8517C0.0382458 18.822 0.0199746 18.7949 0.0010874 18.7707C0.0215212 18.8101 0.0396365 18.8362 0.0557642 18.8517C0.220867 19.1314 0.319115 19.6398 0.236133 20.1046C0.201218 20.3004 0.178181 20.5145 0.171702 20.7238C0.167631 20.8547 0.187799 20.9922 0.207095 21.1237C0.209983 21.1434 0.212852 21.1629 0.215617 21.1823C0.222873 21.2333 0.234754 21.2815 0.246565 21.3295C0.261117 21.3887 0.275564 21.4474 0.281127 21.5102C0.288686 21.5977 0.274648 21.7076 0.255571 21.7912C0.237946 21.868 0.214003 21.9377 0.190046 22.0075C0.178288 22.0417 0.166526 22.076 0.155506 22.1111C0.108713 22.2599 0.117349 22.4788 0.181779 22.5894C0.239011 22.6881 0.268885 22.8075 0.276084 22.9643C0.287336 23.2131 0.367638 23.3624 0.445505 23.5072L0.451019 23.5175C0.494573 23.5979 0.52229 23.6703 0.527329 23.8056C0.537407 24.0778 0.566925 24.1247 0.692186 24.1637C0.779653 24.1908 0.8664 24.2282 0.952427 24.2712C0.971144 24.2807 0.990577 24.3293 1.0003 24.3707C1.05177 24.5888 1.12952 24.7034 1.24218 24.7233C1.29821 24.733 1.35405 24.7497 1.40986 24.7665C1.4867 24.7895 1.56349 24.8126 1.64064 24.8172C1.72823 24.8228 1.81608 24.8117 1.90395 24.8006C1.96593 24.7928 2.02792 24.7849 2.08985 24.783C2.27017 24.7765 2.45062 24.7741 2.63113 24.7717C2.74212 24.7702 2.85314 24.7687 2.96416 24.7662C2.99118 24.7656 3.01818 24.7651 3.04518 24.7646C3.16241 24.7624 3.2795 24.7602 3.39682 24.7511C3.48379 24.7443 3.57072 24.7336 3.65762 24.7228C3.81599 24.7032 3.97427 24.6836 4.13255 24.6882C4.54288 24.7002 4.9507 24.6437 5.35924 24.5784C5.6472 24.5322 5.93624 24.5028 6.22491 24.4853C6.32863 24.479 6.43245 24.4861 6.53627 24.4933C6.61656 24.4988 6.69685 24.5043 6.77707 24.5036C6.86753 24.5025 6.958 24.4904 7.04847 24.4783C7.08903 24.4729 7.12958 24.4674 7.17013 24.463C7.28498 24.4509 7.39986 24.4388 7.51476 24.4268C7.73909 24.4033 7.96347 24.3798 8.1877 24.3556C8.26869 24.3468 8.34969 24.338 8.43068 24.3293C8.7161 24.2986 9.00146 24.2679 9.28661 24.2338C9.57493 24.1988 9.86324 24.1582 10.1516 24.116C10.2004 24.1087 10.2492 24.0973 10.298 24.0858C10.3719 24.0685 10.4458 24.0512 10.5198 24.0483C10.7739 24.0388 11.028 24.0404 11.2822 24.0499C11.8095 24.069 12.3372 24.0937 12.8645 24.12C13.014 24.1276 13.1634 24.1383 13.3128 24.149C13.5703 24.1674 13.8278 24.1859 14.0854 24.1884C14.326 24.1907 14.5665 24.1708 14.8069 24.1508C14.8975 24.1433 14.988 24.1358 15.0785 24.1295C15.1745 24.123 15.2706 24.1148 15.3666 24.1067C15.4819 24.0969 15.5971 24.0871 15.7124 24.0802C15.7887 24.0758 15.8651 24.0701 15.9415 24.0644C16.1543 24.0485 16.3672 24.0326 16.5798 24.0444C16.9477 24.0656 17.3156 24.101 17.6834 24.1364C17.8669 24.1541 18.0504 24.1717 18.2338 24.1876L18.2339 24.1876C18.5175 24.2123 18.8011 24.237 19.0847 24.2513C19.3118 24.2624 19.539 24.2632 19.7661 24.26C19.8851 24.2582 20.0041 24.2522 20.1231 24.2463C20.2123 24.2418 20.3016 24.2373 20.3909 24.2346C20.4721 24.232 20.5534 24.2313 20.6347 24.2306C20.7059 24.2299 20.777 24.2293 20.8481 24.2274C20.916 24.2254 20.9839 24.2221 21.0519 24.2188C21.1708 24.2131 21.2896 24.2073 21.4085 24.2083C21.5374 24.2089 21.6663 24.2175 21.7952 24.2262C21.8427 24.2294 21.8901 24.2326 21.9376 24.2354C22.0405 24.2413 22.1433 24.2486 22.2461 24.2558C22.4586 24.2708 22.6711 24.2857 22.8836 24.2895C23.058 24.2929 23.2325 24.2856 23.407 24.2784C23.5185 24.2737 23.6299 24.2691 23.7413 24.2672C23.8869 24.2653 24.0325 24.2658 24.1781 24.2663C24.3349 24.2668 24.4916 24.2673 24.6484 24.2648C24.7714 24.2629 24.8944 24.2578 25.0175 24.2528C25.1941 24.2455 25.3707 24.2383 25.5472 24.2401C25.6835 24.2414 25.8198 24.2528 25.9561 24.2641C26.074 24.274 26.1919 24.2838 26.3099 24.2871C26.5831 24.295 26.8564 24.2955 27.1299 24.296C27.2153 24.2961 27.3007 24.2963 27.3861 24.2967C27.4288 24.2969 27.4715 24.2972 27.5143 24.2975C27.7283 24.2991 27.9425 24.3006 28.1564 24.2967C28.291 24.2944 28.4257 24.2896 28.5603 24.2848C28.8025 24.2761 29.0446 24.2674 29.2866 24.2736C29.4776 24.2783 29.6684 24.298 29.8593 24.3177C29.989 24.3311 30.1187 24.3445 30.2484 24.3532C30.3 24.3568 30.3517 24.3465 30.4035 24.3362C30.4417 24.3286 30.4798 24.321 30.518 24.3189C30.5398 24.3177 30.5615 24.3265 30.5833 24.3352C30.6036 24.3434 30.624 24.3516 30.6444 24.3516C30.8138 24.3516 30.9833 24.3482 31.1527 24.3448C31.216 24.3436 31.2793 24.3423 31.3427 24.3412C31.3905 24.3404 31.4384 24.3403 31.4862 24.3401C31.5818 24.3397 31.6774 24.3394 31.7732 24.3341C31.9248 24.3255 32.0763 24.3123 32.2279 24.299C32.2738 24.295 32.3197 24.291 32.3656 24.2871C32.4189 24.2823 32.4722 24.2744 32.5254 24.2664C32.549 24.2629 32.5726 24.2588 32.5962 24.2546C32.6468 24.2458 32.6973 24.237 32.7479 24.2338C32.7895 24.2312 32.8312 24.2333 32.8728 24.2353C32.9081 24.2371 32.9434 24.2389 32.9786 24.2378C33.0349 24.2364 33.0911 24.2352 33.1474 24.234C33.3585 24.2295 33.5697 24.225 33.7806 24.2131C33.9206 24.2053 34.0605 24.1931 34.2004 24.1809C34.3463 24.1682 34.4922 24.1555 34.6383 24.1478C34.8429 24.1369 35.0476 24.1317 35.2524 24.1266C35.3607 24.1239 35.4691 24.1212 35.5774 24.1176C35.6865 24.114 35.7956 24.1097 35.9048 24.1054C36.1629 24.0952 36.4212 24.0849 36.6792 24.0849C36.8333 24.0849 36.9872 24.0981 37.1412 24.1112C37.2329 24.119 37.3246 24.1269 37.4164 24.1319C37.53 24.138 37.6436 24.1421 37.7572 24.1462C37.8812 24.1506 38.0051 24.1551 38.1291 24.1621C38.3081 24.1721 38.4872 24.1848 38.6663 24.1976C38.744 24.2031 38.8217 24.2086 38.8994 24.2139C38.9044 24.2142 38.9096 24.2154 38.9147 24.2166C38.923 24.2186 38.9313 24.2206 38.9393 24.2187C39.1402 24.1731 39.3401 24.1995 39.5404 24.2259C39.5989 24.2336 39.6575 24.2414 39.7161 24.2473C39.9565 24.2722 40.1974 24.279 40.4384 24.2858C40.5206 24.2881 40.6028 24.2904 40.6851 24.2935C40.8359 24.2991 40.9869 24.3036 41.1379 24.3081C41.3726 24.3151 41.6073 24.3221 41.8419 24.3333C41.9461 24.3384 42.0501 24.3498 42.1542 24.3611C42.2582 24.3725 42.3622 24.3838 42.4664 24.389C42.6042 24.3956 42.742 24.3973 42.8799 24.3989C43.023 24.4007 43.1662 24.4024 43.3094 24.4097C43.4829 24.4184 43.6564 24.4415 43.8292 24.4749C44.0513 24.5174 44.2732 24.57 44.4951 24.6225C44.5227 24.629 44.5503 24.6356 44.5779 24.6421C44.6782 24.6658 44.7784 24.6918 44.8785 24.7178C45.0437 24.7607 45.2089 24.8036 45.3744 24.8363C45.6275 24.8864 45.8816 24.9238 46.1354 24.9453C46.2407 24.9542 46.3462 24.9497 46.4518 24.9453C46.5359 24.9417 46.62 24.9382 46.7041 24.9413C46.9074 24.9482 47.1107 24.9608 47.3138 24.9734C47.4152 24.9796 47.5166 24.9859 47.618 24.9915C47.66 24.9938 47.702 24.9971 47.744 25.0004C47.9204 25.0144 48.0967 25.0284 48.2738 24.966C48.3549 24.9375 48.4383 24.9392 48.5217 24.9408C48.5619 24.9416 48.6021 24.9423 48.642 24.9397C48.6794 24.9374 48.7168 24.9343 48.7541 24.9313C48.8285 24.9253 48.9029 24.9193 48.9775 24.9183C48.9954 24.9183 49.0131 24.9294 49.0309 24.9406C49.0467 24.9506 49.0626 24.9606 49.0786 24.9628C49.1454 24.9722 49.2121 24.9827 49.2787 24.9932C49.5796 25.0405 49.8801 25.0877 50.1833 25.0337C50.4734 24.9819 50.7653 24.9469 51.0562 24.962C51.2 24.9696 51.3432 25.011 51.4866 25.0524C51.5851 25.0808 51.6837 25.1093 51.7825 25.1268C51.9089 25.1491 52.0367 25.1594 52.1587 25.013C52.1955 24.9687 52.2391 24.9534 52.2829 24.9379C52.3141 24.9269 52.3454 24.9158 52.3747 24.8944C52.4006 24.8754 52.4252 24.8439 52.4497 24.8127C52.4817 24.7719 52.5134 24.7314 52.5474 24.7193C52.6785 24.6739 52.8127 24.6381 52.9452 24.6484C53.1139 24.6625 53.2825 24.6882 53.4511 24.7138C53.5785 24.7332 53.706 24.7526 53.8335 24.767C53.8729 24.7715 53.9137 24.7403 53.9537 24.7097C53.9641 24.7018 53.9744 24.6939 53.9847 24.6866C54.0003 24.6757 54.0152 24.6581 54.03 24.6405C54.0486 24.6184 54.0671 24.5964 54.0869 24.588C54.1737 24.5521 54.2377 24.4694 54.2593 24.268C54.2611 24.2513 54.2655 24.2258 54.2709 24.2226C54.3375 24.1881 54.3615 24.0748 54.3856 23.961C54.4004 23.8911 54.4152 23.8211 54.44 23.769C54.4649 23.7172 54.4749 23.6154 54.4796 23.5334C54.4867 23.4136 54.4919 23.2931 54.497 23.1727C54.5037 23.0179 54.5103 22.8631 54.521 22.7096C54.5272 22.6204 54.5167 22.5982 54.5197 22.5961C54.5217 22.5948 54.5293 22.6017 54.5504 22.6045C54.6061 22.6121 54.5989 22.5522 54.5914 22.4893C54.5838 22.4258 54.5758 22.3593 54.6316 22.3557C54.6575 22.3438 54.6682 22.3394 54.6715 22.3318C54.6777 22.318 54.6596 22.2934 54.6637 22.1939C54.6688 22.0769 54.6933 22.0156 54.7451 21.9854C54.8531 21.9225 54.9157 21.7338 54.9189 21.4911C54.92 21.4211 54.9261 21.3494 54.9366 21.2834C54.9549 21.1672 54.9578 21.0669 54.9312 20.9451C54.9194 20.891 54.9311 20.8091 54.9421 20.7322C54.9452 20.7108 54.9482 20.6897 54.9506 20.6697C54.9556 20.6297 54.9627 20.5907 54.9697 20.5517C54.9797 20.4969 54.9897 20.4424 54.9935 20.3856C55.001 20.2495 55.001 20.1086 55.001 19.9685C55.001 19.9319 54.9931 19.8826 54.9809 19.8603C54.9038 19.717 54.8588 19.5387 54.8448 19.3183C54.8435 19.297 54.8354 19.2784 54.8272 19.2594C54.8219 19.2471 54.8164 19.2346 54.8128 19.2212C54.7771 19.0891 54.7444 18.9561 54.7167 18.8113C54.676 18.598 54.6731 18.4866 54.767 18.3791C54.7753 18.3694 54.7756 18.3239 54.7759 18.2798C54.776 18.2623 54.7762 18.245 54.7768 18.2303C54.7787 18.1815 54.7813 18.1327 54.7838 18.0839C54.7896 17.9719 54.7954 17.8599 54.7944 17.748C54.7936 17.6605 54.8014 17.5736 54.8091 17.4867C54.8228 17.3326 54.8365 17.1786 54.8027 17.0213C54.7951 16.9855 54.7966 16.9258 54.8052 16.8908C54.8434 16.734 54.812 16.6369 54.7563 16.5454C54.7339 16.5088 54.712 16.4711 54.6901 16.4329C54.7083 16.3655 54.7209 16.2898 54.7249 16.2016C54.7321 16.0448 54.762 15.9254 54.8192 15.8267C54.8837 15.7161 54.8923 15.4972 54.8455 15.3484C54.8345 15.3133 54.8227 15.279 54.811 15.2448C54.787 15.1751 54.7631 15.1053 54.7454 15.0285C54.7264 14.9449 54.7123 14.8351 54.7199 14.7475C54.7255 14.6847 54.7399 14.626 54.7545 14.5668C54.7663 14.5189 54.7781 14.4706 54.7854 14.4196C54.7882 14.4002 54.791 14.3807 54.7939 14.361C54.8132 14.2295 54.8334 14.092 54.8293 13.9612C54.8228 13.7518 54.7998 13.5377 54.7649 13.3419C54.6819 12.8771 54.7802 12.3687 54.9453 12.089C54.9614 12.0735 54.9795 12.0474 54.9999 12.008C54.981 12.0322 54.9628 12.0593 54.9453 12.089C54.8653 12.1657 54.8342 11.9802 54.8116 11.8455C54.8051 11.8068 54.7993 11.7722 54.7933 11.7493C54.7627 11.6331 54.7745 11.5384 54.8055 11.4222C54.8498 11.2567 54.8829 11.0736 54.9084 10.8898C54.9218 10.7943 54.9142 10.6781 54.9052 10.5762C54.8985 10.5009 54.8883 10.4272 54.878 10.3534C54.8668 10.2726 54.8556 10.1918 54.8491 10.109C54.8351 9.93064 54.8374 9.77481 54.8395 9.63227C54.8432 9.37724 54.8462 9.16479 54.7548 8.94219C54.7433 8.91433 54.7231 8.89841 54.7055 8.88886C54.6546 8.86117 54.6034 8.8352 54.5523 8.80922C54.4476 8.75605 54.3429 8.70287 54.2401 8.63497C54.1832 8.59756 54.1137 8.5132 54.0885 8.40575C54.0101 8.07465 53.9082 7.79768 53.7808 7.55652C53.7477 7.49364 53.7272 7.3854 53.7131 7.28989C53.6804 7.06545 53.7243 6.90149 53.7848 6.71048C53.8282 6.57357 53.8483 6.40056 53.8683 6.22755C53.8768 6.15414 53.8853 6.08073 53.8956 6.01008C53.899 5.98675 53.9007 5.96245 53.9025 5.93825C53.9039 5.91869 53.9052 5.8992 53.9075 5.88035C53.9123 5.8405 53.9184 5.80074 53.9245 5.761C53.9373 5.67852 53.95 5.59616 53.9507 5.51344C53.9527 5.29844 53.947 5.08244 53.9413 4.86703C53.9398 4.81052 53.9384 4.75404 53.937 4.69764C53.9352 4.63397 53.9305 4.56711 53.9197 4.50821L53.919 4.50428C53.865 4.20736 53.8649 4.20659 53.996 4.03067C54.0914 3.90333 54.1271 3.73619 54.09 3.54358C54.0761 3.47155 54.0578 3.40386 54.0395 3.33611C54.0236 3.27734 54.0076 3.21851 53.9946 3.15677C53.9795 3.08638 53.9692 3.0115 53.9589 2.93649C53.9542 2.90209 53.9494 2.86766 53.9442 2.83363C53.9362 2.78087 53.9298 2.72553 53.9234 2.67021C53.909 2.54612 53.8946 2.42212 53.8625 2.32744C53.8027 2.15038 53.7203 2.00598 53.6402 1.86582L53.6289 1.84592C53.5047 1.62851 53.3557 1.57648 53.2074 1.5247C53.1576 1.50729 53.1078 1.4899 53.0591 1.46627C52.9468 1.41191 52.8316 1.38505 52.7166 1.35821C52.68 1.34969 52.6435 1.34117 52.607 1.33176C52.5469 1.31614 52.4868 1.30013 52.4267 1.28412C52.2266 1.23082 52.0266 1.17753 51.8259 1.13836C51.6817 1.11027 51.5371 1.09319 51.3926 1.07612C51.2914 1.06417 51.1902 1.05221 51.0891 1.03648C51.0331 1.02787 50.9772 1.01227 50.9214 0.996675C50.8689 0.982016 50.8164 0.967355 50.7637 0.958486C50.6913 0.946359 50.6188 0.938305 50.5463 0.930252C50.4522 0.919806 50.3582 0.909363 50.2645 0.890039C50.1636 0.869211 50.0629 0.841861 49.9622 0.814512C49.8244 0.777064 49.6865 0.739618 49.5482 0.71892C49.365 0.691594 49.1813 0.678706 48.9976 0.66582C48.8763 0.657313 48.755 0.648806 48.6339 0.636146C48.5292 0.625198 48.4246 0.609412 48.3199 0.593627C48.1735 0.57154 48.0271 0.549457 47.8806 0.540637C47.4358 0.514282 46.9909 0.492762 46.5459 0.471239C46.225 0.455714 45.904 0.440187 45.583 0.422844C45.4883 0.417436 45.3937 0.405843 45.299 0.39425C45.1986 0.381954 45.0982 0.369659 44.9978 0.364743C44.8607 0.357843 44.7235 0.361743 44.5864 0.36564C44.5337 0.367137 44.481 0.368634 44.4283 0.369518C44.4152 0.369759 44.402 0.369991 44.3888 0.370224C44.2713 0.372299 44.1534 0.374379 44.0356 0.382253C43.9436 0.388688 43.8515 0.398104 43.7595 0.407519C43.5784 0.42605 43.3973 0.444576 43.2164 0.440354C42.8854 0.432686 42.5541 0.407536 42.223 0.382393C42.1073 0.373607 41.9916 0.364822 41.8759 0.356784C41.7427 0.347549 41.6094 0.336445 41.4761 0.325339C41.2303 0.304859 40.9845 0.284375 40.7385 0.275602C40.3417 0.261363 39.9449 0.26041 39.5479 0.259455C39.4789 0.259289 39.4099 0.259124 39.3408 0.258888C39.1204 0.25802 38.8999 0.259993 38.6794 0.261966C38.4957 0.263611 38.3119 0.265255 38.1282 0.265255C37.9949 0.265255 37.8616 0.262853 37.7283 0.260451C37.6071 0.258267 37.4859 0.256083 37.3647 0.255704C37.274 0.255704 37.1833 0.258888 37.093 0.274806C37.0564 0.281351 37.0199 0.295054 36.9834 0.308751C36.9357 0.326697 36.8879 0.344631 36.8399 0.346437C36.7427 0.349653 36.6455 0.340956 36.5483 0.33226C36.5012 0.328043 36.4541 0.323827 36.4069 0.320968C36.3642 0.318365 36.3216 0.316959 36.2789 0.315554C36.2173 0.313523 36.1556 0.311492 36.0941 0.305846C36.0325 0.299906 35.9708 0.291197 35.9092 0.282487C35.8056 0.267854 35.7021 0.253221 35.5985 0.251725C35.4528 0.249791 35.3072 0.254245 35.1615 0.258697C35.0074 0.263409 34.8533 0.26812 34.6993 0.265255C34.5805 0.263306 34.4616 0.252192 34.3427 0.241078C34.2188 0.229501 34.0949 0.217923 33.9712 0.216705C33.7581 0.214036 33.5448 0.22871 33.3317 0.243373C33.2906 0.246199 33.2495 0.249024 33.2084 0.251725C33.1489 0.255544 33.0892 0.263944 33.0296 0.272346C32.94 0.284956 32.8505 0.297569 32.761 0.294703C32.6804 0.292136 32.5999 0.277738 32.5194 0.263348C32.4252 0.246509 32.3311 0.229681 32.2369 0.231827C32.0168 0.236794 31.7967 0.260645 31.5766 0.284497C31.5145 0.291224 31.4524 0.297951 31.3904 0.304254C31.3427 0.308985 31.2952 0.318363 31.2476 0.327743C31.2072 0.335723 31.1667 0.343703 31.1262 0.348825C31.0479 0.358906 30.9695 0.365716 30.8912 0.372525C30.7344 0.386144 30.5776 0.399762 30.4221 0.439558C29.992 0.549392 29.5629 0.53825 29.1335 0.45468C29.0235 0.4333 28.914 0.397217 28.8046 0.361119C28.7103 0.330027 28.616 0.298923 28.5212 0.277194C28.1969 0.202379 27.8726 0.129951 27.5476 0.0837891C27.2911 0.0468699 27.0341 0.030314 26.7773 0.013764C26.713 0.00962056 26.6486 0.00547745 26.5844 0.00101524C26.5374 -0.00224346 26.4905 0.00293882 26.4435 0.0081211C26.4102 0.0117989 26.3769 0.0154766 26.3436 0.0161374C26.2783 0.0170657 26.2131 0.0163097 26.1478 0.0155533C26.0451 0.0143642 25.9424 0.0131741 25.8396 0.0185251C25.7594 0.0224395 25.6793 0.0321294 25.5992 0.0418191C25.5165 0.0518312 25.4337 0.0618432 25.3508 0.0654834C25.2373 0.0704863 25.1237 0.0706847 25.0101 0.0708832C24.9067 0.0710637 24.8034 0.0712443 24.7 0.0750342C24.4499 0.0837891 24.1994 0.100503 23.9488 0.117217C23.7983 0.127398 23.6475 0.140282 23.4968 0.153157C23.4472 0.157394 23.3976 0.161629 23.3481 0.165767C23.1629 0.181842 22.978 0.198652 22.7928 0.215491L22.7707 0.217501C22.6127 0.231827 22.4547 0.246153 22.297 0.263663C22.1679 0.278087 22.0387 0.293616 21.9096 0.309144C21.6753 0.337314 21.4411 0.365479 21.2068 0.387028C21.0618 0.400184 20.9166 0.407304 20.7714 0.414424C20.6092 0.422382 20.447 0.43034 20.2849 0.446721C20.1023 0.465425 19.9197 0.490893 19.7371 0.516362C19.5545 0.541831 19.3719 0.5673 19.1893 0.586004C19.0628 0.599193 18.9359 0.600947 18.8091 0.602702C18.7139 0.604017 18.6188 0.605333 18.5237 0.611473C18.2398 0.630657 17.9562 0.655339 17.6723 0.680036C17.6147 0.685053 17.557 0.69007 17.4993 0.695042C17.4479 0.699543 17.3963 0.706252 17.3448 0.712965C17.2687 0.722871 17.1925 0.732787 17.1163 0.735634C17.0711 0.737514 17.0256 0.731755 16.9802 0.725995C16.9294 0.719563 16.8785 0.713129 16.828 0.717328C16.7425 0.724424 16.6572 0.738526 16.5719 0.75263C16.4945 0.765417 16.4171 0.778206 16.3396 0.785775C16.2514 0.794566 16.1629 0.798904 16.0745 0.803244C15.9547 0.80912 15.8349 0.814999 15.7154 0.831938C15.556 0.854555 15.3966 0.88414 15.2373 0.913725C15.0826 0.942443 14.9279 0.97116 14.7731 0.993506C14.593 1.01979 14.4126 1.03585 14.2322 1.05192C14.1559 1.05872 14.0795 1.06552 14.0032 1.0731C13.9015 1.08319 13.7999 1.09229 13.6983 1.10139C13.4713 1.12172 13.2444 1.14204 13.0176 1.17338C12.9179 1.18718 12.8183 1.20336 12.7188 1.21953C12.3646 1.27704 12.0108 1.3345 11.6545 1.28481C11.5137 1.26527 11.3719 1.27127 11.2302 1.27727C11.1815 1.27934 11.1327 1.2814 11.084 1.28242C10.9428 1.2856 10.8015 1.28824 10.6602 1.29088C10.2366 1.29879 9.8129 1.3067 9.38938 1.32938C9.07105 1.34636 8.75289 1.37917 8.43467 1.41199C8.29052 1.42686 8.14635 1.44173 8.00215 1.45513C7.94358 1.4607 7.88497 1.46524 7.82636 1.46977C7.69231 1.48015 7.55829 1.49052 7.4248 1.51323C7.35078 1.52596 7.27717 1.54962 7.20361 1.57326C7.12085 1.59986 7.03816 1.62644 6.95507 1.63739C6.61024 1.68276 6.26505 1.71221 5.91987 1.73847C5.54012 1.76712 5.16074 1.78941 4.781 1.80851C4.57799 1.81907 4.37498 1.82581 4.17198 1.83256C4.05355 1.83649 3.93513 1.84043 3.8167 1.84512C3.74841 1.84793 3.68018 1.85184 3.61197 1.85575C3.50619 1.8618 3.40048 1.86786 3.29478 1.8698C3.22793 1.87108 3.16108 1.86861 3.09425 1.86615C2.9952 1.8625 2.8962 1.85885 2.79733 1.86741C2.64638 1.88092 2.4956 1.90637 2.34246 1.93222Z" fill="#45007B"/>
</svg>
