<svg width="301" height="79" viewBox="0 0 301 79" fill="none" xmlns="http://www.w3.org/2000/svg">
<path fill-rule="evenodd" clip-rule="evenodd" d="M284.409 5.62148C284.75 5.65262 285.094 5.68395 285.441 5.7131L285.444 5.70847C285.52 5.70886 285.598 5.70522 285.675 5.70156C286.066 5.68316 286.471 5.66409 286.799 6.15074C286.939 6.35656 287.131 6.50959 287.324 6.66323C287.441 6.75676 287.559 6.85052 287.666 6.95655C287.744 7.03435 287.827 7.11 287.91 7.186C288.161 7.41535 288.416 7.64787 288.553 7.95224C288.803 8.50797 289.067 9.17022 288.788 9.81626C288.538 10.3928 288.509 10.9161 288.747 11.4835C288.877 11.7914 288.881 12.0809 288.637 12.3217C288.299 12.6574 288.247 13.0858 288.301 13.5837C288.32 13.7506 288.255 13.9363 288.195 14.11C288.185 14.1387 288.175 14.1671 288.166 14.195C288.086 14.4288 287.987 14.6581 287.877 14.8734C287.776 15.0702 287.654 15.2555 287.526 15.4292C287.471 15.5024 287.408 15.5671 287.346 15.6318C287.277 15.702 287.209 15.7721 287.152 15.8529C286.832 16.3021 286.869 16.485 287.334 16.6402C287.565 16.7169 287.798 16.7824 288.031 16.8478C288.431 16.9599 288.83 17.0717 289.212 17.2399C289.482 17.3575 289.717 17.5938 289.948 17.8262C290.013 17.8913 290.078 17.9561 290.143 18.0179C290.342 18.2063 290.527 18.419 290.712 18.6317C290.748 18.6726 290.783 18.7135 290.819 18.7543C290.869 18.8114 290.925 18.8669 290.981 18.9228C291.128 19.0684 291.278 19.2162 291.327 19.4003C291.466 19.9352 291.522 20.5048 291.573 21.0652C291.592 21.2875 291.557 21.5607 291.46 21.746C291.127 22.3828 291.071 23.0589 291.125 23.7813C291.139 23.9759 291.09 24.219 290.995 24.3764C290.821 24.6659 290.856 24.9229 291.051 25.1058C291.249 25.2911 291.493 25.4462 291.736 25.5064C292.584 25.7142 293.436 25.8938 294.288 26.0732C294.443 26.1058 294.597 26.1383 294.751 26.171C295.034 26.2313 295.317 26.2874 295.6 26.3436C296.012 26.4253 296.425 26.507 296.835 26.6017C296.913 26.6196 296.994 26.6358 297.074 26.6521C297.411 26.7204 297.755 26.7903 298.031 26.9884C298.414 27.2625 298.766 27.5989 299.118 27.9356C299.304 28.1138 299.491 28.292 299.682 28.4611C299.982 28.7274 300.151 29.0099 299.946 29.466C299.899 29.5679 299.891 29.7416 299.932 29.8458C300.114 30.3034 300.04 30.7515 299.967 31.1998C299.925 31.4525 299.883 31.7053 299.888 31.9599C299.893 32.2856 299.862 32.6113 299.83 32.937C299.817 33.0791 299.803 33.2211 299.793 33.3631C299.789 33.4059 299.789 33.4561 299.788 33.5071C299.786 33.6353 299.785 33.7679 299.74 33.7961C299.234 34.1087 299.25 34.4329 299.469 35.0534C299.618 35.4749 299.794 35.8616 299.986 36.246C300.006 36.2851 300.035 36.3214 300.064 36.3573C300.108 36.4125 300.152 36.4666 300.159 36.5285C300.234 37.1699 300.477 37.6885 300.891 38.1053C300.957 38.1702 301 38.3137 301 38.4203C301 38.8278 301 39.2376 300.959 39.6336C300.939 39.7988 300.885 39.9576 300.832 40.117C300.794 40.2303 300.755 40.3439 300.729 40.4603C300.716 40.5183 300.699 40.5796 300.683 40.642C300.623 40.8657 300.56 41.1039 300.624 41.2614C300.767 41.6157 300.752 41.9075 300.653 42.2455C300.597 42.4377 300.564 42.6461 300.558 42.8499C300.541 43.5561 300.203 44.1049 299.622 44.2879C299.343 44.3759 299.211 44.5541 299.184 44.8945C299.149 45.3438 298.965 45.6888 298.573 45.786C298.453 45.8151 298.333 45.8464 298.213 45.8778C297.787 45.9888 297.359 46.1004 296.93 46.1148C296.563 46.1276 296.194 46.0744 295.825 46.0211C295.591 45.9873 295.357 45.9536 295.124 45.9365C294.833 45.9157 294.492 45.9689 294.437 46.395C294.38 46.8417 294.344 47.292 294.308 47.7423C294.28 48.0927 294.253 48.443 294.215 48.7916C294.189 49.0301 294.135 49.3265 294.001 49.477C293.868 49.6286 293.788 49.8324 293.708 50.0358C293.585 50.35 293.463 50.6629 293.144 50.7798C293.525 50.8627 293.906 50.9431 294.288 51.0235C294.443 51.056 294.597 51.0886 294.751 51.1213C295.034 51.1816 295.317 51.2377 295.6 51.2939C296.013 51.3756 296.425 51.4573 296.835 51.552C296.913 51.5699 296.994 51.5861 297.074 51.6024C297.411 51.6707 297.755 51.7406 298.031 51.9387C298.414 52.2128 298.766 52.5492 299.118 52.8859C299.304 53.0641 299.491 53.2423 299.682 53.4114C299.982 53.6777 300.151 53.9602 299.946 54.4163C299.899 54.5182 299.891 54.6919 299.932 54.7961C300.114 55.2536 300.04 55.7018 299.967 56.1501C299.925 56.4028 299.883 56.6556 299.888 56.9102C299.893 57.2359 299.862 57.5616 299.83 57.8873C299.817 58.0293 299.803 58.1714 299.793 58.3134C299.789 58.3562 299.789 58.4064 299.788 58.4573C299.786 58.5856 299.785 58.7182 299.74 58.7464C299.234 59.059 299.25 59.3832 299.469 60.0037C299.618 60.4252 299.794 60.8119 299.986 61.1962C300.006 61.2354 300.035 61.2717 300.064 61.3076C300.108 61.3628 300.152 61.4169 300.159 61.4787C300.234 62.1201 300.477 62.6388 300.891 63.0556C300.957 63.1205 301 63.264 301 63.3705C301 63.7781 301 64.1879 300.959 64.5839C300.939 64.7491 300.885 64.9079 300.832 65.0673C300.794 65.1806 300.755 65.2942 300.729 65.4105C300.716 65.4686 300.699 65.5299 300.683 65.5923C300.623 65.816 300.56 66.0542 300.624 66.2117C300.767 66.566 300.752 66.8578 300.653 67.1958C300.597 67.388 300.564 67.5964 300.558 67.8002C300.541 68.5064 300.203 69.0552 299.622 69.2382C299.343 69.3261 299.211 69.5044 299.184 69.8448C299.149 70.294 298.965 70.6391 298.573 70.7363C298.453 70.7654 298.333 70.7967 298.213 70.8281C297.787 70.9391 297.359 71.0507 296.93 71.0651C296.563 71.0779 296.194 71.0247 295.825 70.9714C295.591 70.9376 295.357 70.9039 295.124 70.8868C294.833 70.866 294.492 70.9192 294.437 71.3453C294.38 71.792 294.344 72.2423 294.308 72.6926C294.28 73.043 294.253 73.3933 294.215 73.7419C294.189 73.9804 294.135 74.2768 294.001 74.4273C293.868 74.5789 293.788 74.7827 293.708 74.9861C293.579 75.3171 293.449 75.6468 293.09 75.7472C293.061 75.7564 293.038 75.8305 293.028 75.8792C292.912 76.465 292.567 76.7058 292.1 76.81C291.993 76.8345 291.894 76.8985 291.793 76.9628C291.714 77.0139 291.634 77.0653 291.55 77.0971C291.494 77.1182 291.439 77.1412 291.383 77.1643C291.167 77.2532 290.948 77.3439 290.736 77.331C290.049 77.2891 289.363 77.2327 288.676 77.1762C287.768 77.1015 286.861 77.0269 285.952 76.986C285.239 76.9559 284.516 77.0601 283.811 77.1921C283.627 77.2274 283.457 77.3452 283.285 77.4638C283.153 77.5547 283.02 77.6462 282.88 77.7015C282.723 77.7639 282.554 77.7961 282.386 77.828C282.15 77.8731 281.916 77.9178 281.717 78.0465C281.06 78.4726 280.372 78.4425 279.692 78.3776C279.16 78.3267 278.629 78.2439 278.099 78.1611C277.327 78.0406 276.555 77.9203 275.781 77.8983C274.215 77.8543 272.643 77.9562 271.081 78.1067C269.448 78.264 267.83 78.1266 266.21 77.9889C265.851 77.9584 265.492 77.9279 265.133 77.9006C265.046 77.8941 264.961 77.8651 264.876 77.8361C264.78 77.8035 264.685 77.771 264.588 77.771C264.187 77.774 263.786 77.7915 263.385 77.809C263.184 77.8177 262.983 77.8265 262.782 77.8335C262.567 77.841 262.35 77.8387 262.134 77.8365C261.685 77.8318 261.236 77.8271 260.799 77.9099C259.846 78.0913 258.896 78.0507 257.946 78.01C257.72 78.0004 257.494 77.9907 257.268 77.984C256.722 77.9678 256.176 77.9496 255.63 77.9313C254.536 77.8948 253.442 77.8582 252.347 77.8381C251.894 77.8289 251.441 77.8392 250.988 77.8495C250.42 77.8625 249.852 77.8755 249.284 77.8497C247.918 77.7872 246.55 77.6783 245.187 77.5324C244.296 77.4373 243.407 77.3126 242.517 77.1879C241.978 77.1122 241.438 77.0365 240.898 76.9675C240.75 76.9485 240.601 76.9295 240.453 76.9106C239.258 76.7577 238.063 76.6048 236.867 76.4812C235.936 76.3839 235.002 76.3168 234.068 76.2913C233.297 76.2701 232.526 76.2651 231.755 76.2601C231.013 76.2552 230.271 76.2504 229.529 76.2311C228.968 76.2161 228.408 76.1831 227.847 76.1501C227.287 76.1171 226.727 76.0841 226.166 76.069C224.903 76.0366 223.639 76.0162 222.375 75.9958C221.562 75.9827 220.75 75.9696 219.937 75.9532C219.494 75.9444 219.052 75.9377 218.609 75.9309C217.311 75.9112 216.014 75.8915 214.72 75.8189C214.404 75.8017 214.089 75.7792 213.774 75.7567C212.695 75.6798 211.618 75.603 210.537 75.7356C210.494 75.7413 210.449 75.7355 210.405 75.7297C210.377 75.7262 210.349 75.7226 210.322 75.7217C209.904 75.7063 209.485 75.6903 209.067 75.6742C208.103 75.6372 207.138 75.6003 206.174 75.5712C205.507 75.5506 204.839 75.5377 204.172 75.5247C203.56 75.5128 202.948 75.5009 202.337 75.4832C201.843 75.4685 201.349 75.4457 200.855 75.423C200.026 75.3848 199.197 75.3466 198.367 75.3466C196.978 75.3466 195.587 75.3763 194.197 75.4061C193.609 75.4186 193.022 75.4312 192.435 75.4415C191.851 75.4519 191.268 75.4598 190.685 75.4678C189.582 75.4827 188.48 75.4977 187.378 75.5295C186.591 75.552 185.806 75.5889 185.02 75.6259C184.267 75.6613 183.514 75.6967 182.759 75.7194C181.624 75.7541 180.487 75.7672 179.35 75.7803C179.047 75.7838 178.744 75.7873 178.441 75.7912C178.252 75.7943 178.062 75.7892 177.872 75.7841C177.648 75.7781 177.423 75.7721 177.199 75.7796C176.927 75.7891 176.655 75.8147 176.382 75.8403C176.255 75.8522 176.128 75.8642 176.001 75.8745C175.714 75.8977 175.427 75.9208 175.141 75.9347C174.893 75.946 174.646 75.9577 174.399 75.9694C173.583 76.0079 172.767 76.0465 171.95 76.0713C171.435 76.0868 170.92 76.0878 170.405 76.0888C170.148 76.0894 169.89 76.0899 169.632 76.0922C169.292 76.0953 168.951 76.099 168.61 76.1027C167.698 76.1125 166.785 76.1223 165.872 76.1223C165.763 76.1223 165.653 76.0985 165.544 76.0746C165.426 76.0492 165.309 76.0238 165.192 76.0273C164.987 76.0332 164.781 76.0554 164.575 76.0775C164.297 76.1076 164.018 76.1376 163.74 76.1269C163.042 76.1016 162.343 76.0627 161.645 76.0237C160.617 75.9664 159.59 75.9091 158.562 75.8954C157.259 75.8775 155.955 75.9027 154.651 75.9279C153.926 75.9419 153.201 75.9559 152.476 75.9625C151.324 75.9741 150.171 75.9696 149.019 75.9651C148.789 75.9642 148.558 75.9633 148.328 75.9625C147.868 75.9614 147.408 75.961 146.948 75.9605C145.476 75.9591 144.004 75.9577 142.533 75.9347C141.898 75.9251 141.263 75.8965 140.628 75.8679C139.894 75.8349 139.16 75.8018 138.426 75.7981C137.476 75.7926 136.525 75.8137 135.574 75.8348C134.912 75.8495 134.249 75.8642 133.587 75.8699C132.743 75.8771 131.898 75.8756 131.054 75.8741C130.27 75.8727 129.486 75.8713 128.703 75.8768C128.103 75.8822 127.503 75.8958 126.903 75.9093C125.963 75.9304 125.023 75.9516 124.084 75.9417C122.94 75.9307 121.796 75.8872 120.651 75.8437C120.098 75.8226 119.544 75.8016 118.991 75.7842C118.735 75.7761 118.479 75.7668 118.224 75.7576C117.53 75.7324 116.836 75.7072 116.142 75.7055C115.501 75.7025 114.861 75.7193 114.221 75.736C113.855 75.7456 113.49 75.7552 113.124 75.7611C112.741 75.7665 112.358 75.7683 111.975 75.7702C111.537 75.7724 111.1 75.7745 110.662 75.7819C110.181 75.7898 109.701 75.8029 109.22 75.8159C108.579 75.8333 107.939 75.8507 107.298 75.856C106.075 75.8653 104.852 75.8629 103.629 75.8305C102.102 75.7888 100.574 75.7171 99.0471 75.6453C98.0594 75.599 97.0714 75.5477 96.0833 75.4963C94.103 75.3933 92.1222 75.2903 90.1413 75.2285C88.9961 75.1944 87.8499 75.2406 86.7041 75.2867C86.2928 75.3033 85.8815 75.3198 85.4704 75.3327C84.8498 75.3529 84.2292 75.3814 83.6087 75.4098C83.0915 75.4336 82.5744 75.4573 82.0573 75.4762C81.57 75.4946 81.0826 75.5164 80.5951 75.5383C79.3005 75.5963 78.0052 75.6543 76.7099 75.6476C75.3228 75.6403 73.9364 75.5866 72.5499 75.5329C71.7453 75.5017 70.9406 75.4706 70.1357 75.4485C67.2964 75.372 64.455 75.3003 61.6157 75.2447C60.2473 75.2169 58.879 75.2123 57.5107 75.2401C57.1125 75.2484 56.7144 75.2988 56.3163 75.3492C56.0535 75.3824 55.7907 75.4157 55.5279 75.4369C53.9755 75.5596 52.423 75.6777 50.8706 75.7796C49.335 75.8788 47.7983 75.9682 46.2613 76.0576C45.8253 76.0829 45.3894 76.1083 44.9534 76.1339C43.7462 76.2043 42.5381 76.2727 41.3303 76.3411C40.7115 76.3761 40.0928 76.4112 39.4743 76.4465C39.2559 76.4594 39.0375 76.4751 38.8192 76.4909C38.332 76.5261 37.8449 76.5614 37.3578 76.5646C36.9259 76.5666 36.4936 76.5505 36.0612 76.5345C35.5022 76.5138 34.9432 76.493 34.3847 76.5113C32.8303 76.5622 31.274 76.6479 29.7235 76.7822C27.5237 76.9721 25.3277 77.1365 23.1183 77.1018C22.266 77.0883 21.4138 77.1453 20.561 77.2024C20.0931 77.2337 19.625 77.265 19.1567 77.2847C18.525 77.311 17.8946 77.3175 17.2634 77.324C17.118 77.3255 16.9726 77.327 16.827 77.3287C16.2292 77.3357 15.6314 77.3401 15.0336 77.3445C14.0617 77.3516 13.0901 77.3587 12.1193 77.3773C11.7858 77.3831 11.452 77.4058 11.1183 77.4286C10.6451 77.4609 10.1721 77.4932 9.70047 77.4769C9.28505 77.4635 8.87158 77.3964 8.45779 77.3294C8.15729 77.2806 7.85663 77.2319 7.55493 77.2036C6.94829 77.1458 6.52966 76.8123 6.2525 76.1779C6.20017 76.0574 6.09552 75.9162 5.99474 75.8884C5.53152 75.7634 5.06443 75.6545 4.59346 75.5758C3.91899 75.4623 3.76005 75.3257 3.70578 74.5338C3.67864 74.1402 3.52941 73.9295 3.29489 73.6956L3.26519 73.6657C2.84591 73.2445 2.41354 72.8101 2.35295 72.0863C2.31419 71.6301 2.15333 71.2828 1.84516 70.9957C1.49823 70.6738 1.45172 70.037 1.70368 69.604C1.76302 69.5019 1.82636 69.4022 1.88967 69.3026C2.01867 69.0996 2.14759 68.8968 2.24249 68.6732C2.34521 68.43 2.42079 68.1105 2.38009 67.8558C2.35014 67.673 2.27235 67.5022 2.194 67.3302C2.1304 67.1906 2.06643 67.0501 2.02736 66.9018C2.01247 66.8454 1.99702 66.7885 1.98146 66.7312C1.87757 66.3486 1.76897 65.9487 1.79089 65.568C1.82577 64.959 1.94982 64.3361 2.13782 63.7665C2.63205 62.2707 1.93237 60.6197 0.872208 59.8856C0.596991 59.6935 0.490398 59.4781 0.659016 59.1331C0.823759 58.795 0.759807 58.5195 0.593126 58.1814C0.354734 57.6998 0.176428 57.1672 0.0388191 56.6323C-0.0328923 56.3544 0.00780215 56.0164 0.0562558 55.72C0.0923402 55.5011 0.147415 55.2864 0.202505 55.0717C0.262814 54.8367 0.323143 54.6016 0.358594 54.3607C0.542378 53.0901 1.2252 52.2121 1.90856 51.3335C2.00351 51.2114 2.09846 51.0893 2.1921 50.9661C2.25412 50.8851 2.36265 50.8388 2.45762 50.811C2.73179 50.7304 3.00722 50.6549 3.28266 50.5793C3.50548 50.5182 3.72831 50.457 3.95051 50.3932C3.79505 50.2483 3.73512 50.0117 3.70578 49.5835C3.67864 49.1899 3.52941 48.9792 3.29489 48.7453L3.26521 48.7155C2.84593 48.2942 2.41354 47.8599 2.35295 47.136C2.31419 46.6798 2.15333 46.3325 1.84516 46.0454C1.49823 45.7235 1.45172 45.0867 1.70368 44.6537C1.76302 44.5516 1.82635 44.4519 1.88966 44.3523C2.01866 44.1494 2.14758 43.9465 2.24249 43.7229C2.34521 43.4797 2.42079 43.1602 2.38009 42.9055C2.35014 42.7227 2.27235 42.5519 2.19399 42.3799C2.1304 42.2403 2.06643 42.0998 2.02736 41.9515C2.01247 41.8951 1.99702 41.8382 1.98146 41.7809C1.87757 41.3983 1.76897 40.9984 1.79089 40.6177C1.82577 40.0087 1.94982 39.3858 2.13782 38.8162C2.63205 37.3204 1.93237 35.6694 0.872208 34.9354C0.596991 34.7432 0.490398 34.5278 0.659016 34.1828C0.823759 33.8447 0.759807 33.5692 0.593126 33.2311C0.354734 32.7495 0.176428 32.2169 0.0388191 31.682C-0.0328923 31.4041 0.00780215 31.0661 0.0562558 30.7697C0.09234 30.5508 0.147414 30.3362 0.202504 30.1215C0.262814 29.8864 0.323142 29.6513 0.358594 29.4104C0.542378 28.1398 1.2252 27.2618 1.90855 26.3832C2.0035 26.2611 2.09846 26.139 2.1921 26.0159C2.25412 25.9348 2.36265 25.8885 2.45762 25.8607C2.73179 25.7802 3.00721 25.7046 3.28265 25.629C3.84642 25.4743 4.41027 25.3196 4.96363 25.122C5.26986 25.0132 5.64394 24.7678 5.77961 24.4552C6.20212 23.4919 6.7506 22.6861 7.43671 21.9845C7.61502 21.8015 7.72549 21.4866 7.80108 21.2088C7.97745 20.5558 7.741 20.0788 7.41539 19.523C7.18132 19.1247 7.07339 18.6214 6.96545 18.118C6.91966 17.9044 6.87387 17.6909 6.81845 17.4854C6.80023 17.4175 6.79089 17.3468 6.7816 17.2764C6.77409 17.2195 6.7666 17.1628 6.75448 17.1079C6.72864 16.992 6.69563 16.8763 6.66264 16.7606C6.59419 16.5207 6.52583 16.2811 6.52191 16.0405C6.51116 15.4149 6.54178 14.7864 6.57231 14.1596C6.58031 13.9953 6.58831 13.831 6.59556 13.667C6.60525 13.4818 6.63044 13.2873 6.68859 13.1159L6.69244 13.1045C6.98321 12.2406 6.98396 12.2384 6.2777 11.7266C5.76409 11.3561 5.57222 10.8698 5.77185 10.3095C5.84657 10.0999 5.94518 9.90302 6.04388 9.70592C6.12952 9.53491 6.21523 9.36376 6.28546 9.18411C6.36651 8.97934 6.42206 8.76151 6.4777 8.54331C6.50322 8.44321 6.52877 8.34303 6.55681 8.244C6.59984 8.09048 6.63439 7.92948 6.66893 7.76853C6.7464 7.40753 6.82382 7.04677 6.99675 6.77131C7.31873 6.25619 7.76263 5.83607 8.19348 5.42829C8.2139 5.40897 8.23428 5.38968 8.25462 5.3704C8.9233 4.73788 9.72548 4.58651 10.5239 4.43586C10.7923 4.3852 11.0603 4.33463 11.3227 4.26588C11.9273 4.10772 12.5474 4.02958 13.1671 3.9515C13.364 3.9267 13.5608 3.90191 13.757 3.87455C14.0807 3.82909 14.4043 3.78251 14.7278 3.73594C15.8051 3.58088 16.8822 3.42584 17.9628 3.31188C18.7393 3.23014 19.5177 3.18047 20.2962 3.13079C20.8411 3.09602 21.386 3.06125 21.9302 3.01549C22.2319 2.99042 22.5326 2.94504 22.8334 2.89967C23.116 2.85702 23.3987 2.81436 23.6823 2.78856C24.0721 2.75328 24.4626 2.72985 24.8531 2.70642C25.3596 2.67603 25.866 2.64565 26.3705 2.58942C26.9136 2.52883 27.4558 2.44926 27.9979 2.36969C28.7402 2.26075 29.4825 2.1518 30.2274 2.09158C31.2138 2.01208 32.2031 1.97459 33.1922 1.9371C33.8452 1.91235 34.4982 1.8876 35.1503 1.85076C35.7141 1.81891 36.2776 1.77299 36.8411 1.72706C37.6295 1.6628 38.4178 1.59856 39.2068 1.5729C41.6017 1.49622 43.9973 1.43361 46.3931 1.37099C48.1213 1.32583 49.8496 1.28065 51.578 1.2302C52.0878 1.21446 52.5976 1.18074 53.1074 1.14701C53.648 1.11123 54.1887 1.07546 54.7294 1.06116C55.4673 1.04109 56.2061 1.05243 56.9445 1.06377C57.2283 1.06813 57.512 1.07248 57.7956 1.07505C57.8664 1.07575 57.9373 1.07643 58.0082 1.07711C58.6412 1.08314 59.2756 1.0892 59.9101 1.1121C60.4057 1.13082 60.9013 1.15822 61.3968 1.18561C62.3721 1.23952 63.3471 1.29342 64.3213 1.28114C66.1037 1.25883 67.8872 1.18566 69.6701 1.11251C70.2931 1.08695 70.9161 1.06139 71.539 1.038C72.2565 1.01114 72.9741 0.978832 73.6918 0.946522C75.0152 0.886939 76.339 0.827342 77.6635 0.801819C79.8 0.760394 81.9365 0.75762 84.0742 0.754843C84.4459 0.754361 84.8176 0.753878 85.1893 0.753192C86.3765 0.750666 87.5637 0.756407 88.7509 0.762148C89.7403 0.766932 90.7296 0.771717 91.7189 0.771717C92.4367 0.771717 93.1545 0.764728 93.8722 0.757739C94.5247 0.751386 95.1773 0.745033 95.8298 0.74393C96.3182 0.74393 96.8066 0.753192 97.2931 0.799503C97.4902 0.818546 97.6866 0.858413 97.8829 0.89826C98.1402 0.950472 98.3973 1.00265 98.6556 1.0079C99.179 1.01726 99.7024 0.991958 100.226 0.966657C100.48 0.954389 100.733 0.942122 100.987 0.933805C101.217 0.926232 101.447 0.922142 101.676 0.918054C102.008 0.912143 102.34 0.906237 102.671 0.88981C103.003 0.872529 103.335 0.847189 103.667 0.821849C104.225 0.779278 104.783 0.736707 105.34 0.732352C106.125 0.726728 106.909 0.739684 107.693 0.752637C108.523 0.766346 109.353 0.780051 110.182 0.771717C110.822 0.766046 111.462 0.733712 112.102 0.701378C112.769 0.667695 113.436 0.634012 114.103 0.630468C115.25 0.622702 116.398 0.665394 117.546 0.708052C117.767 0.716274 117.988 0.724495 118.21 0.732352C118.53 0.743463 118.852 0.767902 119.173 0.792345C119.655 0.829032 120.137 0.86573 120.619 0.857392C121.053 0.849923 121.486 0.808034 121.92 0.766167C122.427 0.717179 122.934 0.668221 123.441 0.674463C124.626 0.688912 125.811 0.758304 126.996 0.827695C127.331 0.847267 127.665 0.866839 127.999 0.885179C128.256 0.898942 128.512 0.926227 128.768 0.953517C128.986 0.976731 129.203 0.999949 129.422 1.01485C129.843 1.04418 130.265 1.06399 130.687 1.0838C131.531 1.12342 132.375 1.16304 133.213 1.27882C135.529 1.59837 137.839 1.56595 140.151 1.32282C140.744 1.26062 141.333 1.15564 141.922 1.05062C142.43 0.960159 142.938 0.869669 143.448 0.80645C145.194 0.588788 146.941 0.378073 148.691 0.243771C150.072 0.136361 151.455 0.088194 152.839 0.0400445C153.185 0.0279896 153.531 0.0159358 153.877 0.00295367C154.13 -0.00652698 154.383 0.00855006 154.636 0.0236271C154.815 0.034327 154.994 0.0450268 155.174 0.0469491C155.525 0.04965 155.876 0.0474504 156.228 0.0452497C156.781 0.0417902 157.334 0.0383279 157.887 0.0538958C158.319 0.0652841 158.75 0.0934753 159.182 0.121666C159.627 0.150795 160.073 0.179923 160.519 0.190513C161.13 0.205068 161.742 0.205646 162.354 0.206223C162.91 0.206748 163.467 0.207274 164.023 0.2183C165.37 0.243771 166.719 0.292398 168.068 0.341024C168.879 0.370642 169.691 0.408126 170.502 0.445584C170.769 0.45791 171.036 0.470233 171.303 0.482273C172.301 0.529051 173.296 0.577973 174.294 0.626975L174.412 0.632783C175.263 0.674463 176.114 0.716143 176.962 0.767085C177.658 0.80905 178.353 0.854231 179.049 0.899407C180.31 0.981362 181.571 1.0633 182.833 1.126C183.614 1.16427 184.396 1.18498 185.177 1.2057C186.051 1.22885 186.924 1.252 187.797 1.29966C188.78 1.35408 189.763 1.42818 190.747 1.50227C191.73 1.57637 192.713 1.65047 193.696 1.70488C194.378 1.74326 195.061 1.74836 195.744 1.75346C196.256 1.75729 196.768 1.76112 197.28 1.77898C198.809 1.83479 200.336 1.9066 201.864 1.97845C202.175 1.99305 202.485 2.00765 202.796 2.02211C203.073 2.03521 203.351 2.05472 203.628 2.07425C204.038 2.10308 204.448 2.13193 204.858 2.14021C205.102 2.14568 205.347 2.12892 205.592 2.11217C205.865 2.09345 206.139 2.07473 206.411 2.08695C206.871 2.10759 207.331 2.14862 207.79 2.18965C208.207 2.22686 208.623 2.26406 209.041 2.28609C209.516 2.31166 209.992 2.32428 210.468 2.33691C211.113 2.354 211.758 2.37111 212.402 2.42039C213.26 2.48619 214.118 2.57226 214.976 2.65834C215.809 2.74189 216.642 2.82543 217.476 2.89045C218.445 2.96691 219.417 3.01365 220.388 3.06039C220.799 3.08018 221.21 3.09996 221.621 3.122C222.168 3.15136 222.716 3.17784 223.263 3.20431C224.485 3.26346 225.707 3.32259 226.928 3.41376C227.465 3.45391 228.001 3.50097 228.537 3.54802C230.444 3.71535 232.349 3.88253 234.268 3.73794C235.026 3.6811 235.79 3.69857 236.552 3.71601C236.815 3.72202 237.077 3.72802 237.34 3.73099C238.1 3.74026 238.861 3.74793 239.622 3.7556C241.903 3.77861 244.184 3.80162 246.464 3.86761C248.179 3.91701 249.892 4.01248 251.605 4.10797C252.381 4.15123 253.158 4.19448 253.934 4.23347C254.249 4.24967 254.565 4.26287 254.881 4.27606C255.602 4.30626 256.324 4.33644 257.043 4.4025C257.441 4.43954 257.838 4.50837 258.234 4.57715C258.679 4.65453 259.125 4.73185 259.572 4.76373C261.429 4.89571 263.288 4.98139 265.146 5.0578C267.191 5.14116 269.234 5.206 271.279 5.26157C272.372 5.29228 273.465 5.31191 274.558 5.33154C275.195 5.34299 275.833 5.35444 276.471 5.36808C276.839 5.37625 277.206 5.38762 277.573 5.39899C278.143 5.41662 278.712 5.43424 279.281 5.43987C279.641 5.4436 280.001 5.43643 280.361 5.42927C280.894 5.41865 281.427 5.40803 281.96 5.43292C282.772 5.47222 283.584 5.54627 284.409 5.62148Z" fill="#EBEBEB"/>
</svg>
